<mxfile host="app.diagrams.net" modified="2023-09-15T07:02:34.874Z" agent="Mozilla/5.0 (Windows NT 10.0; Win64; x64) AppleWebKit/537.36 (KHTML, like Gecko) Chrome/116.0.0.0 Safari/537.36 Edg/116.0.1938.76" etag="3O6YB8XeeuLQQmU-oWuo" version="21.7.1" type="device">
  <diagram name="ページ1" id="MFC57rEejd_u72afK9wu">
    <mxGraphModel dx="6455" dy="-25" grid="1" gridSize="10" guides="1" tooltips="1" connect="1" arrows="1" fold="1" page="1" pageScale="1" pageWidth="827" pageHeight="1169" math="0" shadow="0">
      <root>
        <mxCell id="0" />
        <mxCell id="1" parent="0" />
        <mxCell id="m73TzlK8DcfUAyYybOyp-258" style="edgeStyle=none;curved=1;rounded=0;orthogonalLoop=1;jettySize=auto;html=1;exitX=0;exitY=0.75;exitDx=0;exitDy=0;fontSize=12;startSize=8;endSize=8;" edge="1" parent="1">
          <mxGeometry relative="1" as="geometry">
            <mxPoint x="-3095.4" y="2926.7700000000004" as="sourcePoint" />
            <mxPoint x="-3095.4" y="2926.7700000000004" as="targetPoint" />
          </mxGeometry>
        </mxCell>
        <mxCell id="m73TzlK8DcfUAyYybOyp-260" value="" style="group;fillColor=default;" vertex="1" connectable="0" parent="1">
          <mxGeometry x="-3518.26" y="2500" width="400" height="540" as="geometry" />
        </mxCell>
        <mxCell id="m73TzlK8DcfUAyYybOyp-261" value="C" style="ellipse;whiteSpace=wrap;html=1;aspect=fixed;fontSize=16;" vertex="1" parent="m73TzlK8DcfUAyYybOyp-260">
          <mxGeometry x="7" y="510" width="20" height="20" as="geometry" />
        </mxCell>
        <mxCell id="m73TzlK8DcfUAyYybOyp-263" value="&lt;span style=&quot;font-size: 24px;&quot;&gt;贈り物・頂き物登録フォーム&lt;/span&gt;" style="text;strokeColor=none;fillColor=none;html=1;whiteSpace=wrap;verticalAlign=middle;overflow=hidden;container=0;" vertex="1" parent="m73TzlK8DcfUAyYybOyp-260">
          <mxGeometry x="0.2" width="349.8" height="40" as="geometry" />
        </mxCell>
        <mxCell id="m73TzlK8DcfUAyYybOyp-264" value="&lt;font style=&quot;font-size: 14px;&quot;&gt;贈った、または頂いた日時：&lt;br&gt;&lt;/font&gt;" style="text;strokeColor=none;fillColor=none;html=1;whiteSpace=wrap;verticalAlign=middle;overflow=hidden;container=0;" vertex="1" parent="m73TzlK8DcfUAyYybOyp-260">
          <mxGeometry x="2.5299999999999727" y="120" width="184.47" height="20" as="geometry" />
        </mxCell>
        <mxCell id="m73TzlK8DcfUAyYybOyp-265" value="&lt;font style=&quot;font-size: 14px;&quot;&gt;氏名：&lt;/font&gt;" style="text;strokeColor=none;fillColor=none;html=1;whiteSpace=wrap;verticalAlign=middle;overflow=hidden;container=0;" vertex="1" parent="m73TzlK8DcfUAyYybOyp-260">
          <mxGeometry x="5.2999999999995" y="60" width="60" height="20" as="geometry" />
        </mxCell>
        <mxCell id="m73TzlK8DcfUAyYybOyp-266" value="&lt;span style=&quot;font-size: 14px;&quot;&gt;詳細項目選択&lt;/span&gt;" style="text;strokeColor=none;fillColor=none;html=1;whiteSpace=wrap;verticalAlign=middle;overflow=hidden;container=0;" vertex="1" parent="m73TzlK8DcfUAyYybOyp-260">
          <mxGeometry x="2.5299999999999727" y="211" width="94.47" height="20" as="geometry" />
        </mxCell>
        <mxCell id="m73TzlK8DcfUAyYybOyp-267" value="&lt;span style=&quot;font-size: 14px;&quot;&gt;項目選択&lt;/span&gt;" style="text;strokeColor=none;fillColor=none;html=1;whiteSpace=wrap;verticalAlign=middle;overflow=hidden;container=0;" vertex="1" parent="m73TzlK8DcfUAyYybOyp-260">
          <mxGeometry x="0.20000000000004547" y="180" width="71.7" height="20" as="geometry" />
        </mxCell>
        <mxCell id="m73TzlK8DcfUAyYybOyp-268" value="&lt;span style=&quot;font-size: 14px;&quot;&gt;分類：&lt;/span&gt;" style="text;strokeColor=none;fillColor=none;html=1;whiteSpace=wrap;verticalAlign=middle;overflow=hidden;container=0;" vertex="1" parent="m73TzlK8DcfUAyYybOyp-260">
          <mxGeometry x="5.2999999999999545" y="150" width="51.7" height="20" as="geometry" />
        </mxCell>
        <mxCell id="m73TzlK8DcfUAyYybOyp-269" value="&lt;span style=&quot;font-size: 14px;&quot;&gt;備考：&lt;/span&gt;" style="text;strokeColor=none;fillColor=none;html=1;whiteSpace=wrap;verticalAlign=middle;overflow=hidden;container=0;" vertex="1" parent="m73TzlK8DcfUAyYybOyp-260">
          <mxGeometry x="5.2999999999995" y="270.00000000000006" width="50" height="26" as="geometry" />
        </mxCell>
        <mxCell id="m73TzlK8DcfUAyYybOyp-270" value="&lt;span style=&quot;font-size: 14px;&quot;&gt;ファイルを選択&lt;br&gt;&lt;/span&gt;" style="text;strokeColor=default;fillColor=none;html=1;whiteSpace=wrap;verticalAlign=middle;overflow=hidden;container=0;" vertex="1" parent="m73TzlK8DcfUAyYybOyp-260">
          <mxGeometry x="8.599999999999682" y="370" width="120" height="30" as="geometry" />
        </mxCell>
        <mxCell id="m73TzlK8DcfUAyYybOyp-271" value="&lt;span style=&quot;font-size: 14px;&quot;&gt;贈り物・頂き登録&lt;br&gt;&lt;/span&gt;" style="text;strokeColor=default;fillColor=none;html=1;whiteSpace=wrap;verticalAlign=middle;overflow=hidden;container=0;" vertex="1" parent="m73TzlK8DcfUAyYybOyp-260">
          <mxGeometry x="8.599999999999909" y="410" width="128.4" height="30" as="geometry" />
        </mxCell>
        <mxCell id="m73TzlK8DcfUAyYybOyp-272" value="" style="rounded=0;whiteSpace=wrap;html=1;container=0;" vertex="1" parent="m73TzlK8DcfUAyYybOyp-260">
          <mxGeometry x="8.599999999999909" y="296" width="178.4" height="54" as="geometry" />
        </mxCell>
        <mxCell id="m73TzlK8DcfUAyYybOyp-273" value="" style="rounded=0;whiteSpace=wrap;html=1;container=0;" vertex="1" parent="m73TzlK8DcfUAyYybOyp-260">
          <mxGeometry x="52.629999999999654" y="60" width="100" height="20" as="geometry" />
        </mxCell>
        <mxCell id="m73TzlK8DcfUAyYybOyp-274" value="" style="rounded=0;whiteSpace=wrap;html=1;container=0;" vertex="1" parent="m73TzlK8DcfUAyYybOyp-260">
          <mxGeometry x="52.629999999999654" y="86" width="100" height="20" as="geometry" />
        </mxCell>
        <mxCell id="m73TzlK8DcfUAyYybOyp-275" value="選択してください" style="rounded=0;whiteSpace=wrap;html=1;container=0;" vertex="1" parent="m73TzlK8DcfUAyYybOyp-260">
          <mxGeometry x="46.999999999999545" y="150" width="100" height="20" as="geometry" />
        </mxCell>
        <mxCell id="m73TzlK8DcfUAyYybOyp-276" value="年/月/日" style="rounded=0;whiteSpace=wrap;html=1;container=0;" vertex="1" parent="m73TzlK8DcfUAyYybOyp-260">
          <mxGeometry x="184.37999999999965" y="120" width="100" height="20" as="geometry" />
        </mxCell>
        <mxCell id="m73TzlK8DcfUAyYybOyp-277" value="&lt;span style=&quot;font-size: 14px;&quot;&gt;続柄：&lt;/span&gt;" style="rounded=0;whiteSpace=wrap;html=1;fontSize=16;strokeColor=none;container=0;fillColor=none;" vertex="1" parent="m73TzlK8DcfUAyYybOyp-260">
          <mxGeometry x="2.5299999999997453" y="90" width="50.1" height="8.14" as="geometry" />
        </mxCell>
        <mxCell id="m73TzlK8DcfUAyYybOyp-278" value="&lt;span style=&quot;font-size: 14px;&quot;&gt;品目名：&lt;/span&gt;" style="rounded=0;whiteSpace=wrap;html=1;fontSize=16;strokeColor=none;container=0;fillColor=none;" vertex="1" parent="m73TzlK8DcfUAyYybOyp-260">
          <mxGeometry x="2.5299999999999727" y="245.06" width="64.47" height="8.14" as="geometry" />
        </mxCell>
        <mxCell id="m73TzlK8DcfUAyYybOyp-279" value="選択してください" style="rounded=0;whiteSpace=wrap;html=1;container=0;" vertex="1" parent="m73TzlK8DcfUAyYybOyp-260">
          <mxGeometry x="60.2999999999995" y="179.99999999999994" width="100" height="20" as="geometry" />
        </mxCell>
        <mxCell id="m73TzlK8DcfUAyYybOyp-280" value="" style="endArrow=none;html=1;rounded=0;fontSize=12;startSize=8;endSize=8;curved=1;strokeColor=#0000FF;exitX=0.018;exitY=0.77;exitDx=0;exitDy=0;exitPerimeter=0;entryX=0.924;entryY=0.77;entryDx=0;entryDy=0;entryPerimeter=0;" edge="1" parent="m73TzlK8DcfUAyYybOyp-260" source="m73TzlK8DcfUAyYybOyp-281" target="m73TzlK8DcfUAyYybOyp-281">
          <mxGeometry width="50" height="50" relative="1" as="geometry">
            <mxPoint x="14" y="623.75" as="sourcePoint" />
            <mxPoint x="134" y="623.75" as="targetPoint" />
          </mxGeometry>
        </mxCell>
        <mxCell id="m73TzlK8DcfUAyYybOyp-281" value="&lt;font color=&quot;#0000ff&quot;&gt;贈り物頂き物全件一覧&lt;/font&gt;" style="text;strokeColor=none;fillColor=none;html=1;whiteSpace=wrap;verticalAlign=middle;overflow=hidden;container=0;" vertex="1" parent="m73TzlK8DcfUAyYybOyp-260">
          <mxGeometry x="5.2999999999995" y="470" width="129.8" height="24" as="geometry" />
        </mxCell>
        <mxCell id="m73TzlK8DcfUAyYybOyp-282" value="選択してください" style="rounded=0;whiteSpace=wrap;html=1;container=0;" vertex="1" parent="m73TzlK8DcfUAyYybOyp-260">
          <mxGeometry x="90.09999999999945" y="210.99999999999994" width="100" height="20" as="geometry" />
        </mxCell>
        <mxCell id="m73TzlK8DcfUAyYybOyp-283" value="" style="rounded=0;whiteSpace=wrap;html=1;fontSize=16;container=0;" vertex="1" parent="m73TzlK8DcfUAyYybOyp-260">
          <mxGeometry x="60.299999999999955" y="239.89" width="120" height="20" as="geometry" />
        </mxCell>
        <mxCell id="m73TzlK8DcfUAyYybOyp-284" value="" style="endArrow=none;html=1;rounded=0;fontSize=12;startSize=8;endSize=8;curved=1;strokeColor=#0000FF;entryX=0.979;entryY=0.732;entryDx=0;entryDy=0;entryPerimeter=0;" edge="1" parent="m73TzlK8DcfUAyYybOyp-260" target="m73TzlK8DcfUAyYybOyp-285">
          <mxGeometry width="50" height="50" relative="1" as="geometry">
            <mxPoint x="7" y="465" as="sourcePoint" />
            <mxPoint x="107" y="480" as="targetPoint" />
          </mxGeometry>
        </mxCell>
        <mxCell id="m73TzlK8DcfUAyYybOyp-285" value="&lt;div&gt;&lt;font color=&quot;#0000ff&quot;&gt;名簿一覧へ移動&lt;/font&gt;&lt;/div&gt;" style="text;strokeColor=none;fillColor=none;html=1;whiteSpace=wrap;verticalAlign=middle;overflow=hidden;container=0;" vertex="1" parent="m73TzlK8DcfUAyYybOyp-260">
          <mxGeometry x="7" y="450" width="90" height="20" as="geometry" />
        </mxCell>
        <mxCell id="m73TzlK8DcfUAyYybOyp-286" value="" style="endArrow=none;html=1;rounded=0;fontSize=12;startSize=8;endSize=8;curved=1;strokeColor=#0000FF;exitX=0.069;exitY=0.886;exitDx=0;exitDy=0;exitPerimeter=0;" edge="1" parent="m73TzlK8DcfUAyYybOyp-260" source="m73TzlK8DcfUAyYybOyp-287">
          <mxGeometry width="50" height="50" relative="1" as="geometry">
            <mxPoint x="17" y="560" as="sourcePoint" />
            <mxPoint x="67" y="508" as="targetPoint" />
          </mxGeometry>
        </mxCell>
        <mxCell id="m73TzlK8DcfUAyYybOyp-287" value="&lt;div&gt;&lt;font color=&quot;#0000ff&quot;&gt;ログアウト&lt;/font&gt;&lt;/div&gt;" style="text;strokeColor=none;fillColor=none;html=1;whiteSpace=wrap;verticalAlign=middle;overflow=hidden;container=0;" vertex="1" parent="m73TzlK8DcfUAyYybOyp-260">
          <mxGeometry x="7" y="490" width="70" height="20" as="geometry" />
        </mxCell>
        <mxCell id="m73TzlK8DcfUAyYybOyp-288" value="team フォレスト" style="rounded=0;whiteSpace=wrap;html=1;fontSize=16;strokeColor=none;fillColor=none;" vertex="1" parent="m73TzlK8DcfUAyYybOyp-260">
          <mxGeometry x="32.63000000000011" y="510" width="124.37" height="20" as="geometry" />
        </mxCell>
        <mxCell id="m73TzlK8DcfUAyYybOyp-289" value="" style="group" vertex="1" connectable="0" parent="m73TzlK8DcfUAyYybOyp-260">
          <mxGeometry x="5.2999999999999545" y="30" width="160" height="20" as="geometry" />
        </mxCell>
        <mxCell id="m73TzlK8DcfUAyYybOyp-290" value="&lt;font style=&quot;font-size: 14px;&quot; color=&quot;#0000ff&quot;&gt;TOP&lt;/font&gt;" style="text;strokeColor=none;fillColor=none;html=1;whiteSpace=wrap;verticalAlign=middle;overflow=hidden;container=0;" vertex="1" parent="m73TzlK8DcfUAyYybOyp-289">
          <mxGeometry width="160" height="20" as="geometry" />
        </mxCell>
        <mxCell id="m73TzlK8DcfUAyYybOyp-291" value="" style="endArrow=none;html=1;rounded=0;fontSize=12;startSize=8;endSize=8;strokeColor=#0000FF;exitX=0.094;exitY=0.908;exitDx=0;exitDy=0;exitPerimeter=0;entryX=0.938;entryY=0.92;entryDx=0;entryDy=0;entryPerimeter=0;" edge="1" parent="m73TzlK8DcfUAyYybOyp-289" source="m73TzlK8DcfUAyYybOyp-290" target="m73TzlK8DcfUAyYybOyp-290">
          <mxGeometry width="50" height="50" relative="1" as="geometry">
            <mxPoint x="11.700000000000045" y="20" as="sourcePoint" />
            <mxPoint x="31.700000000000045" y="20" as="targetPoint" />
          </mxGeometry>
        </mxCell>
        <mxCell id="m73TzlK8DcfUAyYybOyp-305" value="&lt;font style=&quot;font-size: 18px;&quot;&gt;ShinamonoEntry.jsp&lt;br&gt;&lt;/font&gt;" style="rounded=0;whiteSpace=wrap;html=1;fontSize=16;fillColor=none;strokeColor=none;" vertex="1" parent="1">
          <mxGeometry x="-3518.26" y="2440" width="400" height="60" as="geometry" />
        </mxCell>
        <mxCell id="m73TzlK8DcfUAyYybOyp-391" value="" style="group;strokeColor=default;container=0;fillColor=default;" vertex="1" connectable="0" parent="1">
          <mxGeometry x="-3514.52" y="2230" width="530" height="108" as="geometry" />
        </mxCell>
        <mxCell id="m73TzlK8DcfUAyYybOyp-392" value="&lt;font style=&quot;font-size: 14px;&quot;&gt;名前&lt;/font&gt;" style="rounded=0;whiteSpace=wrap;html=1;fontSize=16;strokeColor=none;container=0;" vertex="1" parent="1">
          <mxGeometry x="-3505.84" y="2249.0704545454546" width="43.05857142857143" height="8.136818181818182" as="geometry" />
        </mxCell>
        <mxCell id="m73TzlK8DcfUAyYybOyp-393" value="生年月日" style="rounded=0;whiteSpace=wrap;html=1;fontSize=14;strokeColor=none;container=0;" vertex="1" parent="1">
          <mxGeometry x="-3452.155714285714" y="2249.0699999999997" width="65.88" height="8.14" as="geometry" />
        </mxCell>
        <mxCell id="m73TzlK8DcfUAyYybOyp-394" value="続柄備考" style="rounded=0;whiteSpace=wrap;html=1;fontSize=14;strokeColor=none;container=0;" vertex="1" parent="1">
          <mxGeometry x="-3214.3557142857144" y="2249.0699999999997" width="62.62" height="8.14" as="geometry" />
        </mxCell>
        <mxCell id="m73TzlK8DcfUAyYybOyp-395" value="&lt;font style=&quot;font-size: 14px;&quot;&gt;性別&lt;/font&gt;" style="rounded=0;whiteSpace=wrap;html=1;fontSize=16;strokeColor=none;container=0;" vertex="1" parent="1">
          <mxGeometry x="-3369.6242857142856" y="2249.0704545454546" width="40.37142857142857" height="8.136818181818182" as="geometry" />
        </mxCell>
        <mxCell id="m73TzlK8DcfUAyYybOyp-396" value="&lt;font color=&quot;#0000cc&quot;&gt;&lt;span style=&quot;font-size: 14px;&quot;&gt;TOPページのトップへ&lt;/span&gt;&lt;/font&gt;" style="rounded=0;whiteSpace=wrap;html=1;fontSize=16;strokeColor=none;container=0;fillColor=none;" vertex="1" parent="1">
          <mxGeometry x="-3516.4500000000003" y="2312.18" width="170" height="17.63" as="geometry" />
        </mxCell>
        <mxCell id="m73TzlK8DcfUAyYybOyp-397" value="" style="endArrow=none;html=1;rounded=0;fontSize=12;startSize=8;endSize=8;strokeColor=#0000FF;exitX=0.108;exitY=1.258;exitDx=0;exitDy=0;exitPerimeter=0;entryX=0.891;entryY=1.169;entryDx=0;entryDy=0;entryPerimeter=0;" edge="1" parent="1" source="m73TzlK8DcfUAyYybOyp-396" target="m73TzlK8DcfUAyYybOyp-396">
          <mxGeometry width="50" height="50" relative="1" as="geometry">
            <mxPoint x="-3477.432857142857" y="2337.07" as="sourcePoint" />
            <mxPoint x="-3388.6414285714286" y="2331.07" as="targetPoint" />
            <Array as="points" />
          </mxGeometry>
        </mxCell>
        <mxCell id="m73TzlK8DcfUAyYybOyp-398" value="" style="rounded=0;whiteSpace=wrap;html=1;fontSize=16;strokeColor=none;container=0;" vertex="1" parent="1">
          <mxGeometry x="-3417.1391362126246" y="2278.998181818182" width="22.093953488372097" height="8.136818181818182" as="geometry" />
        </mxCell>
        <mxCell id="m73TzlK8DcfUAyYybOyp-399" value="&lt;font style=&quot;font-size: 13px;&quot;&gt;男or女&lt;/font&gt;" style="rounded=0;whiteSpace=wrap;html=1;fontSize=16;strokeColor=none;container=0;" vertex="1" parent="1">
          <mxGeometry x="-3377.0099999999998" y="2281.1" width="55.14" height="28.14" as="geometry" />
        </mxCell>
        <mxCell id="m73TzlK8DcfUAyYybOyp-400" value="&lt;span style=&quot;font-size: 13px;&quot;&gt;登録名&lt;/span&gt;" style="rounded=0;whiteSpace=wrap;html=1;fontSize=16;strokeColor=none;container=0;fillColor=none;" vertex="1" parent="1">
          <mxGeometry x="-3516.45" y="2278" width="64.29" height="30" as="geometry" />
        </mxCell>
        <mxCell id="m73TzlK8DcfUAyYybOyp-401" value="&lt;font style=&quot;font-size: 18px;&quot;&gt;showallMeibo.jsp&lt;br&gt;名簿一覧&lt;br&gt;&lt;/font&gt;" style="rounded=0;whiteSpace=wrap;html=1;fontSize=16;strokeColor=none;container=0;fillColor=none;" vertex="1" parent="1">
          <mxGeometry x="-3510" y="2160" width="517.48" height="68.14" as="geometry" />
        </mxCell>
        <mxCell id="m73TzlK8DcfUAyYybOyp-402" value="&lt;span style=&quot;font-size: 14px;&quot;&gt;分類&lt;/span&gt;" style="rounded=0;whiteSpace=wrap;html=1;fontSize=16;strokeColor=none;container=0;" vertex="1" parent="1">
          <mxGeometry x="-3314.3542857142857" y="2249.0704545454546" width="40.37142857142857" height="8.136818181818182" as="geometry" />
        </mxCell>
        <mxCell id="m73TzlK8DcfUAyYybOyp-403" value="&lt;font style=&quot;font-size: 14px;&quot;&gt;親族&lt;/font&gt;" style="rounded=0;whiteSpace=wrap;html=1;fontSize=16;strokeColor=none;container=0;" vertex="1" parent="1">
          <mxGeometry x="-3314.35" y="2280" width="40.37" height="28" as="geometry" />
        </mxCell>
        <mxCell id="m73TzlK8DcfUAyYybOyp-404" value="&lt;span style=&quot;font-size: 14px;&quot;&gt;続柄&lt;/span&gt;" style="rounded=0;whiteSpace=wrap;html=1;fontSize=16;strokeColor=none;container=0;" vertex="1" parent="1">
          <mxGeometry x="-3264.3542857142857" y="2249.0704545454546" width="40.37142857142857" height="8.136818181818182" as="geometry" />
        </mxCell>
        <mxCell id="m73TzlK8DcfUAyYybOyp-405" value="品物登録" style="rounded=0;whiteSpace=wrap;html=1;fontSize=14;strokeColor=none;container=0;fillColor=none;" vertex="1" parent="1">
          <mxGeometry x="-3165.4" y="2248" width="102.62" height="9.21" as="geometry" />
        </mxCell>
        <mxCell id="m73TzlK8DcfUAyYybOyp-406" value="" style="rounded=0;whiteSpace=wrap;html=1;fontSize=16;strokeColor=none;container=0;" vertex="1" parent="1">
          <mxGeometry x="-3430.2342857142858" y="2278.068181818182" width="55.144285714285715" height="8.136818181818182" as="geometry" />
        </mxCell>
        <mxCell id="m73TzlK8DcfUAyYybOyp-408" value="&lt;span style=&quot;font-size: 13px;&quot;&gt;誕生日&lt;br&gt;&lt;/span&gt;" style="rounded=0;whiteSpace=wrap;html=1;fontSize=16;strokeColor=none;container=0;" vertex="1" parent="1">
          <mxGeometry x="-3444.52" y="2268" width="55.14" height="30" as="geometry" />
        </mxCell>
        <mxCell id="m73TzlK8DcfUAyYybOyp-410" value="&lt;span style=&quot;font-size: 14px;&quot;&gt;&lt;font color=&quot;#0000ff&quot;&gt;個人ページ&lt;/font&gt;&lt;/span&gt;" style="rounded=0;whiteSpace=wrap;html=1;fontSize=16;strokeColor=none;container=0;fillColor=none;" vertex="1" parent="1">
          <mxGeometry x="-3084.52" y="2288" width="100" height="20" as="geometry" />
        </mxCell>
        <mxCell id="m73TzlK8DcfUAyYybOyp-411" value="&lt;span style=&quot;font-size: 14px;&quot;&gt;&lt;font color=&quot;#0000ff&quot;&gt;父&lt;/font&gt;&lt;/span&gt;" style="rounded=0;whiteSpace=wrap;html=1;fontSize=16;strokeColor=none;container=0;" vertex="1" parent="1">
          <mxGeometry x="-3264.35" y="2281.1" width="40.37" height="16.9" as="geometry" />
        </mxCell>
        <mxCell id="m73TzlK8DcfUAyYybOyp-415" value="&lt;font color=&quot;#0000ff&quot;&gt;&lt;span style=&quot;font-size: 14px;&quot;&gt;品物登録&lt;/span&gt;&lt;/font&gt;" style="rounded=0;whiteSpace=wrap;html=1;fontSize=16;strokeColor=none;container=0;" vertex="1" parent="1">
          <mxGeometry x="-3153.61" y="2288" width="79.09" height="24.18" as="geometry" />
        </mxCell>
        <mxCell id="m73TzlK8DcfUAyYybOyp-416" value="" style="ellipse;whiteSpace=wrap;html=1;gradientColor=none;fillColor=none;strokeWidth=4;strokeColor=#FF0000;" vertex="1" parent="1">
          <mxGeometry x="-3154.52" y="2286.2" width="80" height="30" as="geometry" />
        </mxCell>
        <mxCell id="m73TzlK8DcfUAyYybOyp-422" value="" style="group" vertex="1" connectable="0" parent="1">
          <mxGeometry x="-3110" y="2883.53" width="182.86" height="122.95" as="geometry" />
        </mxCell>
        <mxCell id="m73TzlK8DcfUAyYybOyp-423" value="" style="rounded=0;whiteSpace=wrap;html=1;fontSize=16;verticalAlign=top;container=0;" vertex="1" parent="m73TzlK8DcfUAyYybOyp-422">
          <mxGeometry width="172.86" height="122.95000000000002" as="geometry" />
        </mxCell>
        <mxCell id="m73TzlK8DcfUAyYybOyp-424" value="&lt;span style=&quot;font-size: 14px;&quot;&gt;完了しました。&lt;/span&gt;" style="rounded=0;whiteSpace=wrap;html=1;fontSize=16;strokeColor=none;container=0;" vertex="1" parent="m73TzlK8DcfUAyYybOyp-422">
          <mxGeometry x="4.64" y="23.46" width="131.69" height="46.54" as="geometry" />
        </mxCell>
        <mxCell id="m73TzlK8DcfUAyYybOyp-425" style="edgeStyle=none;curved=1;rounded=0;orthogonalLoop=1;jettySize=auto;html=1;exitX=0;exitY=0.75;exitDx=0;exitDy=0;fontSize=12;startSize=8;endSize=8;" edge="1" parent="m73TzlK8DcfUAyYybOyp-422">
          <mxGeometry relative="1" as="geometry">
            <mxPoint x="17.982080536912754" y="82.91036184210564" as="sourcePoint" />
            <mxPoint x="17.982080536912754" y="82.91036184210564" as="targetPoint" />
          </mxGeometry>
        </mxCell>
        <mxCell id="m73TzlK8DcfUAyYybOyp-426" value="登録成功画面" style="rounded=0;whiteSpace=wrap;html=1;fontSize=16;container=0;" vertex="1" parent="m73TzlK8DcfUAyYybOyp-422">
          <mxGeometry x="4.644025436261462" y="4.04" width="131.6943359952677" height="19.41" as="geometry" />
        </mxCell>
        <mxCell id="m73TzlK8DcfUAyYybOyp-427" style="edgeStyle=none;curved=1;rounded=0;orthogonalLoop=1;jettySize=auto;html=1;exitX=0.5;exitY=1;exitDx=0;exitDy=0;fontSize=12;startSize=8;endSize=8;" edge="1" parent="m73TzlK8DcfUAyYybOyp-422" source="m73TzlK8DcfUAyYybOyp-426" target="m73TzlK8DcfUAyYybOyp-426">
          <mxGeometry relative="1" as="geometry" />
        </mxCell>
        <mxCell id="m73TzlK8DcfUAyYybOyp-428" value="&lt;font color=&quot;#0000ff&quot;&gt;&lt;span style=&quot;font-size: 14px;&quot;&gt;&lt;u&gt;ページのトップへ&lt;/u&gt;&lt;/span&gt;&lt;/font&gt;" style="text;strokeColor=none;fillColor=none;html=1;whiteSpace=wrap;verticalAlign=middle;overflow=hidden;container=0;" vertex="1" parent="m73TzlK8DcfUAyYybOyp-422">
          <mxGeometry x="4.644025436261462" y="72.95" width="148.73663117420884" height="36.61" as="geometry" />
        </mxCell>
        <mxCell id="m73TzlK8DcfUAyYybOyp-262" value="" style="group;strokeColor=default;container=0;" vertex="1" connectable="0" parent="1">
          <mxGeometry x="-3518.26" y="2490" width="358.26" height="540" as="geometry" />
        </mxCell>
        <mxCell id="m73TzlK8DcfUAyYybOyp-473" value="&lt;div style=&quot;padding: 0px 0px 0px 2px; font-size: 20px;&quot;&gt;&lt;div style=&quot;font-family: &amp;quot;ＭＳ ゴシック&amp;quot;; font-size: 20px;&quot;&gt;&lt;p style=&quot;margin: 0px; font-size: 20px;&quot;&gt;&lt;span style=&quot;border: 1pt solid rgb(0, 255, 255); font-size: 20px;&quot;&gt;&lt;font color=&quot;#050505&quot;&gt;ShinamonoDAO.java&lt;/font&gt;&lt;/span&gt;&lt;/p&gt;&lt;/div&gt;&lt;/div&gt;" style="rounded=0;whiteSpace=wrap;html=1;fontSize=20;align=center;" vertex="1" parent="1">
          <mxGeometry x="-2729.97" y="2670" width="228.97" height="110" as="geometry" />
        </mxCell>
        <mxCell id="m73TzlK8DcfUAyYybOyp-477" value="&lt;font style=&quot;font-size: 20px;&quot;&gt;SQL&lt;/font&gt;" style="shape=cylinder3;whiteSpace=wrap;html=1;boundedLbl=1;backgroundOutline=1;size=15;" vertex="1" parent="1">
          <mxGeometry x="-2731" y="2845" width="221" height="80" as="geometry" />
        </mxCell>
        <mxCell id="m73TzlK8DcfUAyYybOyp-478" value="" style="endArrow=classic;html=1;rounded=0;entryX=0;entryY=0;entryDx=0;entryDy=0;exitX=1;exitY=1;exitDx=0;exitDy=0;" edge="1" parent="1" source="m73TzlK8DcfUAyYybOyp-416" target="m73TzlK8DcfUAyYybOyp-470">
          <mxGeometry width="50" height="50" relative="1" as="geometry">
            <mxPoint x="-3330" y="2310" as="sourcePoint" />
            <mxPoint x="-2930" y="2291.1000000000004" as="targetPoint" />
          </mxGeometry>
        </mxCell>
        <mxCell id="m73TzlK8DcfUAyYybOyp-487" value="&lt;div style=&quot;padding: 0px 0px 0px 2px; font-size: 20px;&quot;&gt;&lt;div style=&quot;font-family: &amp;quot;ＭＳ ゴシック&amp;quot;; font-size: 20px;&quot;&gt;&lt;p style=&quot;margin: 0px; font-size: 20px;&quot;&gt;&lt;span style=&quot;border: 1pt solid rgb(0, 255, 255); font-size: 20px;&quot;&gt;&lt;font color=&quot;#050505&quot;&gt;InsertShinamonoBL.java&lt;/font&gt;&lt;/span&gt;&lt;/p&gt;&lt;/div&gt;&lt;/div&gt;" style="rounded=0;whiteSpace=wrap;html=1;fontSize=20;align=center;" vertex="1" parent="1">
          <mxGeometry x="-2731" y="2480" width="230" height="110" as="geometry" />
        </mxCell>
        <mxCell id="m73TzlK8DcfUAyYybOyp-494" value="" style="endArrow=classic;html=1;rounded=0;" edge="1" parent="1">
          <mxGeometry width="50" height="50" relative="1" as="geometry">
            <mxPoint x="-3160" y="2554.17" as="sourcePoint" />
            <mxPoint x="-3040" y="2554.17" as="targetPoint" />
          </mxGeometry>
        </mxCell>
        <mxCell id="m73TzlK8DcfUAyYybOyp-496" value="" style="endArrow=classic;html=1;rounded=0;" edge="1" parent="1">
          <mxGeometry width="50" height="50" relative="1" as="geometry">
            <mxPoint x="-2561" y="2600" as="sourcePoint" />
            <mxPoint x="-2561" y="2670" as="targetPoint" />
          </mxGeometry>
        </mxCell>
        <mxCell id="m73TzlK8DcfUAyYybOyp-497" value="" style="endArrow=classic;html=1;rounded=0;exitX=0.695;exitY=1.047;exitDx=0;exitDy=0;exitPerimeter=0;entryX=0.695;entryY=0.024;entryDx=0;entryDy=0;entryPerimeter=0;" edge="1" parent="1">
          <mxGeometry width="50" height="50" relative="1" as="geometry">
            <mxPoint x="-2561.3999999999996" y="2780" as="sourcePoint" />
            <mxPoint x="-2561.3999999999996" y="2863" as="targetPoint" />
          </mxGeometry>
        </mxCell>
        <mxCell id="m73TzlK8DcfUAyYybOyp-498" value="" style="endArrow=classic;html=1;rounded=0;entryX=0.22;entryY=1.035;entryDx=0;entryDy=0;entryPerimeter=0;" edge="1" parent="1" target="m73TzlK8DcfUAyYybOyp-487">
          <mxGeometry width="50" height="50" relative="1" as="geometry">
            <mxPoint x="-2680" y="2670" as="sourcePoint" />
            <mxPoint x="-2681" y="2630" as="targetPoint" />
          </mxGeometry>
        </mxCell>
        <mxCell id="m73TzlK8DcfUAyYybOyp-499" value="" style="endArrow=classic;html=1;rounded=0;exitX=0.695;exitY=1.047;exitDx=0;exitDy=0;exitPerimeter=0;entryX=0.695;entryY=0.024;entryDx=0;entryDy=0;entryPerimeter=0;" edge="1" parent="1">
          <mxGeometry width="50" height="50" relative="1" as="geometry">
            <mxPoint x="-2680.9999999999995" y="2863" as="sourcePoint" />
            <mxPoint x="-2680.9999999999995" y="2780" as="targetPoint" />
          </mxGeometry>
        </mxCell>
        <mxCell id="m73TzlK8DcfUAyYybOyp-501" value="" style="endArrow=classic;html=1;rounded=0;entryX=0.889;entryY=1.033;entryDx=0;entryDy=0;entryPerimeter=0;exitX=0.163;exitY=1.017;exitDx=0;exitDy=0;exitPerimeter=0;" edge="1" parent="1" source="m73TzlK8DcfUAyYybOyp-470" target="m73TzlK8DcfUAyYybOyp-442">
          <mxGeometry width="50" height="50" relative="1" as="geometry">
            <mxPoint x="-3003" y="2570" as="sourcePoint" />
            <mxPoint x="-3002" y="2890" as="targetPoint" />
          </mxGeometry>
        </mxCell>
        <mxCell id="m73TzlK8DcfUAyYybOyp-504" style="edgeStyle=none;curved=1;rounded=0;orthogonalLoop=1;jettySize=auto;html=1;exitX=0;exitY=0.75;exitDx=0;exitDy=0;fontSize=12;startSize=8;endSize=8;" edge="1" parent="1">
          <mxGeometry relative="1" as="geometry">
            <mxPoint x="-2912.54" y="2926.7700000000004" as="sourcePoint" />
            <mxPoint x="-2912.54" y="2926.7700000000004" as="targetPoint" />
          </mxGeometry>
        </mxCell>
        <mxCell id="m73TzlK8DcfUAyYybOyp-505" value="&lt;span style=&quot;font-size: 14px;&quot;&gt;完了しました。&lt;/span&gt;" style="rounded=0;whiteSpace=wrap;html=1;fontSize=16;strokeColor=none;container=0;" vertex="1" parent="1">
          <mxGeometry x="-2922.4959745637384" y="2906.9900000000002" width="131.6943359952677" height="46.54" as="geometry" />
        </mxCell>
        <mxCell id="m73TzlK8DcfUAyYybOyp-506" style="edgeStyle=none;curved=1;rounded=0;orthogonalLoop=1;jettySize=auto;html=1;exitX=0;exitY=0.75;exitDx=0;exitDy=0;fontSize=12;startSize=8;endSize=8;" edge="1" parent="1">
          <mxGeometry relative="1" as="geometry">
            <mxPoint x="-2909.157919463087" y="2966.4403618421056" as="sourcePoint" />
            <mxPoint x="-2909.157919463087" y="2966.4403618421056" as="targetPoint" />
          </mxGeometry>
        </mxCell>
        <mxCell id="m73TzlK8DcfUAyYybOyp-507" value="登録成功画面" style="rounded=0;whiteSpace=wrap;html=1;fontSize=16;container=0;" vertex="1" parent="1">
          <mxGeometry x="-2922.4959745637384" y="2887.57" width="131.6943359952677" height="19.41" as="geometry" />
        </mxCell>
        <mxCell id="m73TzlK8DcfUAyYybOyp-508" style="edgeStyle=none;curved=1;rounded=0;orthogonalLoop=1;jettySize=auto;html=1;exitX=0.5;exitY=1;exitDx=0;exitDy=0;fontSize=12;startSize=8;endSize=8;" edge="1" source="m73TzlK8DcfUAyYybOyp-507" target="m73TzlK8DcfUAyYybOyp-507" parent="1">
          <mxGeometry relative="1" as="geometry" />
        </mxCell>
        <mxCell id="m73TzlK8DcfUAyYybOyp-509" value="&lt;font color=&quot;#0000ff&quot;&gt;&lt;span style=&quot;font-size: 14px;&quot;&gt;&lt;u&gt;ページのトップへ&lt;/u&gt;&lt;/span&gt;&lt;/font&gt;" style="text;strokeColor=none;fillColor=none;html=1;whiteSpace=wrap;verticalAlign=middle;overflow=hidden;container=0;" vertex="1" parent="1">
          <mxGeometry x="-2922.4959745637384" y="2956.48" width="148.73663117420884" height="36.61" as="geometry" />
        </mxCell>
        <mxCell id="m73TzlK8DcfUAyYybOyp-510" value="" style="rounded=0;whiteSpace=wrap;html=1;fontSize=16;verticalAlign=top;container=0;" vertex="1" parent="1">
          <mxGeometry x="-2927.14" y="2883.53" width="172.86" height="122.95000000000002" as="geometry" />
        </mxCell>
        <mxCell id="m73TzlK8DcfUAyYybOyp-511" value="&lt;div style=&quot;padding: 0px 0px 0px 2px;&quot;&gt;&lt;div style=&quot;font-family: &amp;quot;ＭＳ ゴシック&amp;quot;;&quot;&gt;&lt;p style=&quot;margin: 0px;&quot;&gt;&lt;font style=&quot;font-size: 20px;&quot;&gt;error.html&lt;/font&gt;&lt;/p&gt;&lt;/div&gt;&lt;/div&gt;" style="rounded=0;whiteSpace=wrap;html=1;fontSize=16;fillColor=none;strokeColor=none;" vertex="1" parent="1">
          <mxGeometry x="-2907.8599999999997" y="2857.57" width="162.86" height="30" as="geometry" />
        </mxCell>
        <mxCell id="m73TzlK8DcfUAyYybOyp-512" value="&lt;span style=&quot;font-size: 14px;&quot;&gt;完了しました。&lt;/span&gt;" style="rounded=0;whiteSpace=wrap;html=1;fontSize=16;strokeColor=none;container=0;" vertex="1" parent="1">
          <mxGeometry x="-3105.36" y="2906.9900000000002" width="131.69" height="46.54" as="geometry" />
        </mxCell>
        <mxCell id="m73TzlK8DcfUAyYybOyp-513" value="登録成功画面" style="rounded=0;whiteSpace=wrap;html=1;fontSize=16;container=0;" vertex="1" parent="1">
          <mxGeometry x="-3105.3559745637385" y="2887.57" width="131.6943359952677" height="19.41" as="geometry" />
        </mxCell>
        <mxCell id="m73TzlK8DcfUAyYybOyp-514" value="&lt;font color=&quot;#0000ff&quot;&gt;&lt;span style=&quot;font-size: 14px;&quot;&gt;&lt;u&gt;ページのトップへ&lt;/u&gt;&lt;/span&gt;&lt;/font&gt;" style="text;strokeColor=none;fillColor=none;html=1;whiteSpace=wrap;verticalAlign=middle;overflow=hidden;container=0;" vertex="1" parent="1">
          <mxGeometry x="-3105.3559745637385" y="2956.48" width="148.73663117420884" height="36.61" as="geometry" />
        </mxCell>
        <mxCell id="m73TzlK8DcfUAyYybOyp-515" value="&lt;span style=&quot;font-size: 14px;&quot;&gt;送信できませんでした。&lt;/span&gt;" style="rounded=0;whiteSpace=wrap;html=1;fontSize=16;strokeColor=none;container=0;fillColor=none;" vertex="1" parent="1">
          <mxGeometry x="-2922.5" y="2909.42" width="172.5" height="46.54" as="geometry" />
        </mxCell>
        <mxCell id="m73TzlK8DcfUAyYybOyp-516" value="登録失敗画面" style="rounded=0;whiteSpace=wrap;html=1;fontSize=16;container=0;" vertex="1" parent="1">
          <mxGeometry x="-2922.4959745637384" y="2890" width="131.6943359952677" height="19.41" as="geometry" />
        </mxCell>
        <mxCell id="m73TzlK8DcfUAyYybOyp-517" value="&lt;font color=&quot;#0000ff&quot;&gt;&lt;span style=&quot;font-size: 14px;&quot;&gt;&lt;u&gt;ページのトップへ&lt;/u&gt;&lt;/span&gt;&lt;/font&gt;" style="text;strokeColor=none;fillColor=none;html=1;whiteSpace=wrap;verticalAlign=middle;overflow=hidden;container=0;" vertex="1" parent="1">
          <mxGeometry x="-2922.4959745637384" y="2958.91" width="148.73663117420884" height="36.61" as="geometry" />
        </mxCell>
        <mxCell id="m73TzlK8DcfUAyYybOyp-442" value="&lt;font style=&quot;font-size: 18px;&quot;&gt;finish.html&lt;/font&gt;" style="rounded=0;whiteSpace=wrap;html=1;fontSize=16;fillColor=none;strokeColor=none;" vertex="1" parent="1">
          <mxGeometry x="-3147.38" y="2853.53" width="162.86" height="30" as="geometry" />
        </mxCell>
        <mxCell id="m73TzlK8DcfUAyYybOyp-518" value="" style="edgeStyle=segmentEdgeStyle;endArrow=classic;html=1;curved=0;rounded=0;endSize=8;startSize=8;sourcePerimeterSpacing=0;targetPerimeterSpacing=0;" edge="1" parent="1">
          <mxGeometry width="100" relative="1" as="geometry">
            <mxPoint x="-3002" y="2813.47" as="sourcePoint" />
            <mxPoint x="-2890" y="2880" as="targetPoint" />
            <Array as="points">
              <mxPoint x="-2890" y="2813" />
              <mxPoint x="-2890" y="2880" />
            </Array>
          </mxGeometry>
        </mxCell>
        <mxCell id="m73TzlK8DcfUAyYybOyp-482" value="&lt;span style=&quot;font-size: 20px; background-color: rgb(255, 255, 255);&quot;&gt;入力内容&lt;br&gt;POST&lt;/span&gt;" style="text;html=1;align=center;verticalAlign=middle;whiteSpace=wrap;rounded=0;" vertex="1" parent="1">
          <mxGeometry x="-3170" y="2558.14" width="130" height="71.86" as="geometry" />
        </mxCell>
        <mxCell id="m73TzlK8DcfUAyYybOyp-525" value="" style="endArrow=classic;html=1;rounded=0;exitX=1.009;exitY=0.426;exitDx=0;exitDy=0;exitPerimeter=0;" edge="1" parent="1" source="m73TzlK8DcfUAyYybOyp-470" target="m73TzlK8DcfUAyYybOyp-487">
          <mxGeometry width="50" height="50" relative="1" as="geometry">
            <mxPoint x="-2670" y="2338" as="sourcePoint" />
            <mxPoint x="-2441" y="2487" as="targetPoint" />
          </mxGeometry>
        </mxCell>
        <mxCell id="m73TzlK8DcfUAyYybOyp-470" value="&lt;div style=&quot;padding: 0px 0px 0px 2px; font-size: 20px;&quot;&gt;&lt;div style=&quot;font-family: &amp;quot;ＭＳ ゴシック&amp;quot;; font-size: 20px;&quot;&gt;&lt;p style=&quot;margin: 0px; font-size: 20px;&quot;&gt;&lt;span style=&quot;border: 1pt solid rgb(0, 255, 255); font-size: 20px;&quot;&gt;&lt;font color=&quot;#050505&quot;&gt;SaveShinamonoEntry.java&lt;/font&gt;&lt;/span&gt;&lt;/p&gt;&lt;/div&gt;&lt;/div&gt;" style="rounded=0;whiteSpace=wrap;html=1;fontSize=20;align=center;" vertex="1" parent="1">
          <mxGeometry x="-3040" y="2488.14" width="260" height="110" as="geometry" />
        </mxCell>
        <mxCell id="m73TzlK8DcfUAyYybOyp-489" value="" style="curved=1;endArrow=classic;html=1;rounded=0;entryX=0.42;entryY=-0.036;entryDx=0;entryDy=0;entryPerimeter=0;" edge="1" parent="1" target="m73TzlK8DcfUAyYybOyp-470">
          <mxGeometry width="50" height="50" relative="1" as="geometry">
            <mxPoint x="-2965" y="2490.2" as="sourcePoint" />
            <mxPoint x="-2900.000000000001" y="2496.25" as="targetPoint" />
            <Array as="points">
              <mxPoint x="-2970.000000000001" y="2450.2" />
              <mxPoint x="-2960" y="2390" />
              <mxPoint x="-2940.000000000001" y="2410.2" />
            </Array>
          </mxGeometry>
        </mxCell>
        <mxCell id="m73TzlK8DcfUAyYybOyp-476" value="&lt;font style=&quot;font-size: 20px;&quot;&gt;セッション&lt;br&gt;スコープ&lt;/font&gt;" style="ellipse;whiteSpace=wrap;html=1;flipH=1;" vertex="1" parent="1">
          <mxGeometry x="-3020" y="2348.2" width="145" height="80" as="geometry" />
        </mxCell>
        <mxCell id="m73TzlK8DcfUAyYybOyp-531" value="" style="endArrow=classic;html=1;rounded=0;exitX=1.009;exitY=0.426;exitDx=0;exitDy=0;exitPerimeter=0;" edge="1" parent="1">
          <mxGeometry width="50" height="50" relative="1" as="geometry">
            <mxPoint x="-2733" y="2580" as="sourcePoint" />
            <mxPoint x="-2780" y="2580" as="targetPoint" />
          </mxGeometry>
        </mxCell>
        <mxCell id="m73TzlK8DcfUAyYybOyp-532" value="&lt;font style=&quot;font-size: 20px;&quot;&gt;➊&lt;/font&gt;" style="rounded=0;whiteSpace=wrap;html=1;fontSize=16;fillColor=none;strokeColor=none;" vertex="1" parent="1">
          <mxGeometry x="-3118.26" y="2359.13" width="101" height="60" as="geometry" />
        </mxCell>
        <mxCell id="m73TzlK8DcfUAyYybOyp-533" value="&lt;font style=&quot;font-size: 20px;&quot;&gt;➌&lt;/font&gt;" style="rounded=0;whiteSpace=wrap;html=1;fontSize=16;fillColor=none;strokeColor=none;" vertex="1" parent="1">
          <mxGeometry x="-3140" y="2480" width="70.88" height="50" as="geometry" />
        </mxCell>
        <mxCell id="m73TzlK8DcfUAyYybOyp-536" value="" style="endArrow=classic;html=1;rounded=0;" edge="1" parent="1">
          <mxGeometry width="50" height="50" relative="1" as="geometry">
            <mxPoint x="-3040" y="2508.33" as="sourcePoint" />
            <mxPoint x="-3160" y="2508" as="targetPoint" />
          </mxGeometry>
        </mxCell>
        <mxCell id="m73TzlK8DcfUAyYybOyp-535" value="&lt;font style=&quot;font-size: 20px;&quot;&gt;➍&lt;/font&gt;" style="rounded=0;whiteSpace=wrap;html=1;fontSize=16;fillColor=none;strokeColor=none;" vertex="1" parent="1">
          <mxGeometry x="-3140" y="2530" width="70.88" height="50" as="geometry" />
        </mxCell>
        <mxCell id="m73TzlK8DcfUAyYybOyp-537" value="&lt;font style=&quot;font-size: 20px;&quot;&gt;❷&lt;/font&gt;" style="rounded=0;whiteSpace=wrap;html=1;fontSize=16;fillColor=none;strokeColor=none;" vertex="1" parent="1">
          <mxGeometry x="-3002" y="2445" width="70.88" height="50" as="geometry" />
        </mxCell>
        <mxCell id="m73TzlK8DcfUAyYybOyp-542" value="&lt;font style=&quot;font-size: 20px;&quot;&gt;➎&lt;/font&gt;" style="rounded=0;whiteSpace=wrap;html=1;fontSize=16;fillColor=none;strokeColor=none;" vertex="1" parent="1">
          <mxGeometry x="-2861.87" y="2445" width="70.88" height="50" as="geometry" />
        </mxCell>
        <mxCell id="m73TzlK8DcfUAyYybOyp-543" value="" style="curved=1;endArrow=classic;html=1;rounded=0;entryX=0.42;entryY=-0.036;entryDx=0;entryDy=0;entryPerimeter=0;" edge="1" parent="1">
          <mxGeometry width="50" height="50" relative="1" as="geometry">
            <mxPoint x="-2825.0499999999997" y="2488.14" as="sourcePoint" />
            <mxPoint x="-2791.0499999999997" y="2481.94" as="targetPoint" />
            <Array as="points">
              <mxPoint x="-2830.0500000000006" y="2448.14" />
              <mxPoint x="-2820.0499999999997" y="2387.94" />
              <mxPoint x="-2800.0500000000006" y="2408.14" />
            </Array>
          </mxGeometry>
        </mxCell>
        <mxCell id="m73TzlK8DcfUAyYybOyp-475" value="&lt;div style=&quot;padding: 0px 0px 0px 2px; font-size: 20px;&quot;&gt;&lt;div style=&quot;font-family: &amp;quot;ＭＳ ゴシック&amp;quot;; font-size: 20px;&quot;&gt;&lt;p style=&quot;margin: 0px; font-size: 20px;&quot;&gt;&lt;span style=&quot;border: 1pt solid rgb(0, 255, 255); font-size: 20px;&quot;&gt;&lt;font color=&quot;#050505&quot;&gt;ShinamonoDTO.java&lt;/font&gt;&lt;/span&gt;&lt;/p&gt;&lt;/div&gt;&lt;/div&gt;" style="rounded=0;whiteSpace=wrap;html=1;fontSize=20;align=center;" vertex="1" parent="1">
          <mxGeometry x="-2868.97" y="2349.13" width="180" height="70" as="geometry" />
        </mxCell>
        <mxCell id="m73TzlK8DcfUAyYybOyp-546" value="&lt;font style=&quot;font-size: 20px;&quot;&gt;❻&lt;/font&gt;" style="rounded=0;whiteSpace=wrap;html=1;fontSize=16;fillColor=none;strokeColor=none;" vertex="1" parent="1">
          <mxGeometry x="-2790.99" y="2510" width="70.88" height="50" as="geometry" />
        </mxCell>
        <mxCell id="m73TzlK8DcfUAyYybOyp-547" value="&lt;font style=&quot;font-size: 20px;&quot;&gt;❼&lt;/font&gt;" style="rounded=0;whiteSpace=wrap;html=1;fontSize=16;fillColor=none;strokeColor=none;" vertex="1" parent="1">
          <mxGeometry x="-2600" y="2608.14" width="70.88" height="50" as="geometry" />
        </mxCell>
        <mxCell id="m73TzlK8DcfUAyYybOyp-548" value="&lt;font style=&quot;font-size: 20px;&quot;&gt;❽&lt;/font&gt;" style="rounded=0;whiteSpace=wrap;html=1;fontSize=16;fillColor=none;strokeColor=none;" vertex="1" parent="1">
          <mxGeometry x="-2600" y="2795" width="70.88" height="50" as="geometry" />
        </mxCell>
        <mxCell id="m73TzlK8DcfUAyYybOyp-549" value="&lt;font style=&quot;font-size: 20px;&quot;&gt;❾&lt;/font&gt;" style="rounded=0;whiteSpace=wrap;html=1;fontSize=16;fillColor=none;strokeColor=none;" vertex="1" parent="1">
          <mxGeometry x="-2720" y="2798.53" width="70.88" height="50" as="geometry" />
        </mxCell>
        <mxCell id="m73TzlK8DcfUAyYybOyp-550" value="&lt;font style=&quot;font-size: 20px;&quot;&gt;❿&lt;/font&gt;" style="rounded=0;whiteSpace=wrap;html=1;fontSize=16;fillColor=none;strokeColor=none;" vertex="1" parent="1">
          <mxGeometry x="-2719.1200000000003" y="2608.14" width="70.88" height="50" as="geometry" />
        </mxCell>
        <mxCell id="m73TzlK8DcfUAyYybOyp-551" value="&lt;font style=&quot;font-size: 20px;&quot;&gt;⓫&lt;/font&gt;" style="rounded=0;whiteSpace=wrap;html=1;fontSize=16;fillColor=none;strokeColor=none;" vertex="1" parent="1">
          <mxGeometry x="-2790" y="2558.14" width="70.88" height="50" as="geometry" />
        </mxCell>
        <mxCell id="m73TzlK8DcfUAyYybOyp-552" value="&lt;font style=&quot;font-size: 20px;&quot;&gt;⓬&lt;/font&gt;" style="rounded=0;whiteSpace=wrap;html=1;fontSize=16;fillColor=none;strokeColor=none;" vertex="1" parent="1">
          <mxGeometry x="-3030" y="2620" width="70.88" height="50" as="geometry" />
        </mxCell>
        <mxCell id="m73TzlK8DcfUAyYybOyp-554" value="&lt;p style=&quot;margin-left:10.5pt;mso-para-margin-left:1.0gd&quot; class=&quot;MsoNormal&quot;&gt;&lt;b&gt;&lt;font style=&quot;font-size: 30px;&quot;&gt;機能④　贈り物・頂き物登録機能&lt;/font&gt;&lt;span style=&quot;font-size:11.0pt;font-family:&amp;quot;游ゴシック Light&amp;quot;;mso-ascii-theme-font:major-latin;&lt;br/&gt;mso-fareast-theme-font:major-latin;mso-hansi-theme-font:major-latin&quot;&gt;&lt;/span&gt;&lt;/b&gt;&lt;/p&gt;" style="rounded=0;whiteSpace=wrap;html=1;" vertex="1" parent="1">
          <mxGeometry x="-3516.45" y="2040" width="964.52" height="110" as="geometry" />
        </mxCell>
        <mxCell id="m73TzlK8DcfUAyYybOyp-617" value="&lt;div style=&quot;padding: 0px 0px 0px 2px; font-size: 20px;&quot;&gt;&lt;div style=&quot;font-family: &amp;quot;ＭＳ ゴシック&amp;quot;; font-size: 20px;&quot;&gt;&lt;p style=&quot;margin: 0px; font-size: 20px;&quot;&gt;&lt;span style=&quot;border: 1pt solid rgb(0, 255, 255); font-size: 20px;&quot;&gt;&lt;font color=&quot;#050505&quot;&gt;ShinamonoDAO.java&lt;/font&gt;&lt;/span&gt;&lt;/p&gt;&lt;/div&gt;&lt;/div&gt;" style="rounded=0;whiteSpace=wrap;html=1;fontSize=20;align=center;" vertex="1" parent="1">
          <mxGeometry x="-2746.229999999999" y="3931.8" width="228.97" height="110" as="geometry" />
        </mxCell>
        <mxCell id="m73TzlK8DcfUAyYybOyp-618" value="&lt;font style=&quot;font-size: 20px;&quot;&gt;SQL&lt;/font&gt;" style="shape=cylinder3;whiteSpace=wrap;html=1;boundedLbl=1;backgroundOutline=1;size=15;" vertex="1" parent="1">
          <mxGeometry x="-2747.2599999999993" y="4106.8" width="221" height="80" as="geometry" />
        </mxCell>
        <mxCell id="m73TzlK8DcfUAyYybOyp-620" value="&lt;div style=&quot;padding: 0px 0px 0px 2px; font-size: 20px;&quot;&gt;&lt;div style=&quot;font-family: &amp;quot;ＭＳ ゴシック&amp;quot;; font-size: 20px;&quot;&gt;&lt;p style=&quot;margin: 0px; font-size: 20px;&quot;&gt;&lt;span style=&quot;border: 1pt solid rgb(0, 255, 255); font-size: 20px;&quot;&gt;&lt;font color=&quot;#050505&quot;&gt;ShowAllShinamonoBL.java&lt;/font&gt;&lt;/span&gt;&lt;/p&gt;&lt;/div&gt;&lt;/div&gt;" style="rounded=0;whiteSpace=wrap;html=1;fontSize=20;align=center;" vertex="1" parent="1">
          <mxGeometry x="-2747.2599999999993" y="3741.8" width="262.74" height="110" as="geometry" />
        </mxCell>
        <mxCell id="m73TzlK8DcfUAyYybOyp-622" value="" style="endArrow=classic;html=1;rounded=0;" edge="1" parent="1">
          <mxGeometry width="50" height="50" relative="1" as="geometry">
            <mxPoint x="-2577.2599999999993" y="3861.8" as="sourcePoint" />
            <mxPoint x="-2577.2599999999993" y="3931.8" as="targetPoint" />
          </mxGeometry>
        </mxCell>
        <mxCell id="m73TzlK8DcfUAyYybOyp-623" value="" style="endArrow=classic;html=1;rounded=0;exitX=0.695;exitY=1.047;exitDx=0;exitDy=0;exitPerimeter=0;entryX=0.695;entryY=0.024;entryDx=0;entryDy=0;entryPerimeter=0;" edge="1" parent="1">
          <mxGeometry width="50" height="50" relative="1" as="geometry">
            <mxPoint x="-2577.659999999999" y="4041.8" as="sourcePoint" />
            <mxPoint x="-2577.659999999999" y="4124.8" as="targetPoint" />
          </mxGeometry>
        </mxCell>
        <mxCell id="m73TzlK8DcfUAyYybOyp-624" value="" style="endArrow=classic;html=1;rounded=0;entryX=0.189;entryY=1.033;entryDx=0;entryDy=0;entryPerimeter=0;" edge="1" parent="1" target="m73TzlK8DcfUAyYybOyp-620">
          <mxGeometry width="50" height="50" relative="1" as="geometry">
            <mxPoint x="-2696.2599999999993" y="3931.8" as="sourcePoint" />
            <mxPoint x="-2697.2599999999993" y="3891.8" as="targetPoint" />
          </mxGeometry>
        </mxCell>
        <mxCell id="m73TzlK8DcfUAyYybOyp-625" value="" style="endArrow=classic;html=1;rounded=0;exitX=0.695;exitY=1.047;exitDx=0;exitDy=0;exitPerimeter=0;entryX=0.695;entryY=0.024;entryDx=0;entryDy=0;entryPerimeter=0;" edge="1" parent="1">
          <mxGeometry width="50" height="50" relative="1" as="geometry">
            <mxPoint x="-2697.259999999999" y="4124.8" as="sourcePoint" />
            <mxPoint x="-2697.259999999999" y="4041.8" as="targetPoint" />
          </mxGeometry>
        </mxCell>
        <mxCell id="m73TzlK8DcfUAyYybOyp-626" value="" style="endArrow=classic;html=1;rounded=0;entryX=0.889;entryY=1.033;entryDx=0;entryDy=0;entryPerimeter=0;exitX=0.163;exitY=1.017;exitDx=0;exitDy=0;exitPerimeter=0;" edge="1" parent="1" source="m73TzlK8DcfUAyYybOyp-645">
          <mxGeometry width="50" height="50" relative="1" as="geometry">
            <mxPoint x="-3019.2599999999993" y="3831.8" as="sourcePoint" />
            <mxPoint x="-3018.8574599999993" y="4146.320000000001" as="targetPoint" />
          </mxGeometry>
        </mxCell>
        <mxCell id="m73TzlK8DcfUAyYybOyp-806" value="&lt;font style=&quot;font-size: 16px;&quot;&gt;フォワード&lt;/font&gt;" style="edgeLabel;html=1;align=center;verticalAlign=middle;resizable=0;points=[];" vertex="1" connectable="0" parent="m73TzlK8DcfUAyYybOyp-626">
          <mxGeometry x="-0.0671" y="2" relative="1" as="geometry">
            <mxPoint y="1" as="offset" />
          </mxGeometry>
        </mxCell>
        <mxCell id="m73TzlK8DcfUAyYybOyp-644" value="" style="endArrow=classic;html=1;rounded=0;exitX=1.009;exitY=0.426;exitDx=0;exitDy=0;exitPerimeter=0;" edge="1" parent="1" source="m73TzlK8DcfUAyYybOyp-645" target="m73TzlK8DcfUAyYybOyp-620">
          <mxGeometry width="50" height="50" relative="1" as="geometry">
            <mxPoint x="-2686.2599999999993" y="3599.8" as="sourcePoint" />
            <mxPoint x="-2457.2599999999993" y="3748.8" as="targetPoint" />
          </mxGeometry>
        </mxCell>
        <mxCell id="m73TzlK8DcfUAyYybOyp-645" value="&lt;div style=&quot;padding: 0px 0px 0px 2px; font-size: 20px;&quot;&gt;&lt;div style=&quot;font-family: &amp;quot;ＭＳ ゴシック&amp;quot;; font-size: 20px;&quot;&gt;&lt;p style=&quot;margin: 0px; font-size: 20px;&quot;&gt;&lt;span style=&quot;border: 1pt solid rgb(0, 255, 255); font-size: 20px;&quot;&gt;&lt;font color=&quot;#050505&quot;&gt;ShowAllShinamono.java&lt;/font&gt;&lt;/span&gt;&lt;/p&gt;&lt;/div&gt;&lt;/div&gt;" style="rounded=0;whiteSpace=wrap;html=1;fontSize=20;align=center;" vertex="1" parent="1">
          <mxGeometry x="-3056.2599999999993" y="3749.94" width="260" height="110" as="geometry" />
        </mxCell>
        <mxCell id="m73TzlK8DcfUAyYybOyp-646" value="" style="curved=1;endArrow=classic;html=1;rounded=0;entryX=0.42;entryY=-0.036;entryDx=0;entryDy=0;entryPerimeter=0;" edge="1" parent="1">
          <mxGeometry width="50" height="50" relative="1" as="geometry">
            <mxPoint x="-3015.919999999999" y="3752" as="sourcePoint" />
            <mxPoint x="-2981.719999999999" y="3745.9800000000005" as="targetPoint" />
            <Array as="points">
              <mxPoint x="-3020.92" y="3712" />
              <mxPoint x="-3010.919999999999" y="3651.8" />
              <mxPoint x="-2990.92" y="3672" />
            </Array>
          </mxGeometry>
        </mxCell>
        <mxCell id="m73TzlK8DcfUAyYybOyp-647" value="&lt;font style=&quot;font-size: 20px;&quot;&gt;セッション&lt;br&gt;スコープ&lt;/font&gt;" style="ellipse;whiteSpace=wrap;html=1;flipH=1;" vertex="1" parent="1">
          <mxGeometry x="-3070.919999999999" y="3610" width="145" height="80" as="geometry" />
        </mxCell>
        <mxCell id="m73TzlK8DcfUAyYybOyp-648" value="" style="endArrow=classic;html=1;rounded=0;exitX=1.009;exitY=0.426;exitDx=0;exitDy=0;exitPerimeter=0;" edge="1" parent="1">
          <mxGeometry width="50" height="50" relative="1" as="geometry">
            <mxPoint x="-2749.2599999999993" y="3841.8" as="sourcePoint" />
            <mxPoint x="-2796.2599999999993" y="3841.8" as="targetPoint" />
          </mxGeometry>
        </mxCell>
        <mxCell id="m73TzlK8DcfUAyYybOyp-653" value="&lt;font style=&quot;font-size: 20px;&quot;&gt;❷&lt;/font&gt;" style="rounded=0;whiteSpace=wrap;html=1;fontSize=16;fillColor=none;strokeColor=none;" vertex="1" parent="1">
          <mxGeometry x="-3052.919999999999" y="3706.8" width="70.88" height="50" as="geometry" />
        </mxCell>
        <mxCell id="m73TzlK8DcfUAyYybOyp-654" value="&lt;font style=&quot;font-size: 20px;&quot;&gt;➌&lt;/font&gt;" style="rounded=0;whiteSpace=wrap;html=1;fontSize=16;fillColor=none;strokeColor=none;" vertex="1" parent="1">
          <mxGeometry x="-2912.789999999999" y="3706.8" width="70.88" height="50" as="geometry" />
        </mxCell>
        <mxCell id="m73TzlK8DcfUAyYybOyp-655" value="" style="curved=1;endArrow=classic;html=1;rounded=0;entryX=0.42;entryY=-0.036;entryDx=0;entryDy=0;entryPerimeter=0;" edge="1" parent="1">
          <mxGeometry width="50" height="50" relative="1" as="geometry">
            <mxPoint x="-2875.969999999999" y="3749.94" as="sourcePoint" />
            <mxPoint x="-2841.969999999999" y="3743.7400000000002" as="targetPoint" />
            <Array as="points">
              <mxPoint x="-2880.97" y="3709.94" />
              <mxPoint x="-2870.969999999999" y="3649.7400000000002" />
              <mxPoint x="-2850.97" y="3669.94" />
            </Array>
          </mxGeometry>
        </mxCell>
        <mxCell id="m73TzlK8DcfUAyYybOyp-656" value="&lt;div style=&quot;padding: 0px 0px 0px 2px; font-size: 20px;&quot;&gt;&lt;div style=&quot;font-family: &amp;quot;ＭＳ ゴシック&amp;quot;; font-size: 20px;&quot;&gt;&lt;p style=&quot;margin: 0px; font-size: 20px;&quot;&gt;&lt;span style=&quot;border: 1pt solid rgb(0, 255, 255); font-size: 20px;&quot;&gt;&lt;font color=&quot;#050505&quot;&gt;ShinamonoDTO.java&lt;/font&gt;&lt;/span&gt;&lt;/p&gt;&lt;/div&gt;&lt;/div&gt;" style="rounded=0;whiteSpace=wrap;html=1;fontSize=20;align=center;" vertex="1" parent="1">
          <mxGeometry x="-2919.889999999999" y="3610.9300000000003" width="180" height="70" as="geometry" />
        </mxCell>
        <mxCell id="m73TzlK8DcfUAyYybOyp-657" value="&lt;font style=&quot;font-size: 20px;&quot;&gt;➍&lt;/font&gt;" style="rounded=0;whiteSpace=wrap;html=1;fontSize=16;fillColor=none;strokeColor=none;" vertex="1" parent="1">
          <mxGeometry x="-2807.249999999999" y="3771.8" width="70.88" height="50" as="geometry" />
        </mxCell>
        <mxCell id="m73TzlK8DcfUAyYybOyp-658" value="&lt;font style=&quot;font-size: 20px;&quot;&gt;➎&lt;/font&gt;" style="rounded=0;whiteSpace=wrap;html=1;fontSize=16;fillColor=none;strokeColor=none;" vertex="1" parent="1">
          <mxGeometry x="-2616.2599999999993" y="3869.94" width="70.88" height="50" as="geometry" />
        </mxCell>
        <mxCell id="m73TzlK8DcfUAyYybOyp-659" value="&lt;font style=&quot;font-size: 20px;&quot;&gt;❻&lt;/font&gt;" style="rounded=0;whiteSpace=wrap;html=1;fontSize=16;fillColor=none;strokeColor=none;" vertex="1" parent="1">
          <mxGeometry x="-2616.2599999999993" y="4056.8" width="70.88" height="50" as="geometry" />
        </mxCell>
        <mxCell id="m73TzlK8DcfUAyYybOyp-660" value="&lt;font style=&quot;font-size: 20px;&quot;&gt;❼&lt;/font&gt;" style="rounded=0;whiteSpace=wrap;html=1;fontSize=16;fillColor=none;strokeColor=none;" vertex="1" parent="1">
          <mxGeometry x="-2736.2599999999993" y="4060.3300000000004" width="70.88" height="50" as="geometry" />
        </mxCell>
        <mxCell id="m73TzlK8DcfUAyYybOyp-661" value="&lt;font style=&quot;font-size: 20px;&quot;&gt;❽&lt;/font&gt;" style="rounded=0;whiteSpace=wrap;html=1;fontSize=16;fillColor=none;strokeColor=none;" vertex="1" parent="1">
          <mxGeometry x="-2735.3799999999997" y="3881.8" width="70.88" height="38.14" as="geometry" />
        </mxCell>
        <mxCell id="m73TzlK8DcfUAyYybOyp-662" value="&lt;font style=&quot;font-size: 20px;&quot;&gt;❾&lt;/font&gt;" style="rounded=0;whiteSpace=wrap;html=1;fontSize=16;fillColor=none;strokeColor=none;" vertex="1" parent="1">
          <mxGeometry x="-2806.2599999999993" y="3819.94" width="70.88" height="50" as="geometry" />
        </mxCell>
        <mxCell id="m73TzlK8DcfUAyYybOyp-664" value="&lt;p style=&quot;margin-left:10.5pt;mso-para-margin-left:1.0gd&quot; class=&quot;MsoNormal&quot;&gt;&lt;b&gt;&lt;font style=&quot;font-size: 30px;&quot;&gt;機能⑦　贈り物・頂き物一覧機能&lt;/font&gt;&lt;span style=&quot;font-size:11.0pt;font-family:&amp;quot;游ゴシック Light&amp;quot;;mso-ascii-theme-font:major-latin;&lt;br/&gt;mso-fareast-theme-font:major-latin;mso-hansi-theme-font:major-latin&quot;&gt;&lt;/span&gt;&lt;/b&gt;&lt;/p&gt;" style="rounded=0;whiteSpace=wrap;html=1;" vertex="1" parent="1">
          <mxGeometry x="-3465.519999999999" y="3460" width="964.52" height="110" as="geometry" />
        </mxCell>
        <mxCell id="m73TzlK8DcfUAyYybOyp-730" value="&lt;font style=&quot;font-size: 18px;&quot;&gt;mainpage.jp&lt;br&gt;トップページ&lt;/font&gt;" style="rounded=0;whiteSpace=wrap;html=1;fontSize=16;strokeColor=none;fillColor=none;" vertex="1" parent="1">
          <mxGeometry x="-3514.5199999999995" y="3680" width="410" height="70" as="geometry" />
        </mxCell>
        <mxCell id="m73TzlK8DcfUAyYybOyp-619" value="" style="endArrow=classic;html=1;rounded=0;entryX=0;entryY=0.75;entryDx=0;entryDy=0;exitX=1;exitY=1;exitDx=0;exitDy=0;" edge="1" parent="1" source="m73TzlK8DcfUAyYybOyp-795" target="m73TzlK8DcfUAyYybOyp-645">
          <mxGeometry width="50" height="50" relative="1" as="geometry">
            <mxPoint x="-3142.694482758572" y="3971.5448275862236" as="sourcePoint" />
            <mxPoint x="-2987.1399999999994" y="3951.1000000000004" as="targetPoint" />
          </mxGeometry>
        </mxCell>
        <mxCell id="m73TzlK8DcfUAyYybOyp-699" value="" style="group" vertex="1" connectable="0" parent="1">
          <mxGeometry x="-3680.8799999999997" y="3720" width="890.4299999999998" height="528" as="geometry" />
        </mxCell>
        <mxCell id="m73TzlK8DcfUAyYybOyp-701" value="" style="rounded=0;whiteSpace=wrap;html=1;" vertex="1" parent="m73TzlK8DcfUAyYybOyp-699">
          <mxGeometry x="186.35999999999999" y="30" width="390" height="330" as="geometry" />
        </mxCell>
        <mxCell id="m73TzlK8DcfUAyYybOyp-702" value="カレンダー" style="shape=internalStorage;whiteSpace=wrap;html=1;backgroundOutline=1;" vertex="1" parent="m73TzlK8DcfUAyYybOyp-699">
          <mxGeometry x="201.35999999999999" y="120" width="310" height="150" as="geometry" />
        </mxCell>
        <mxCell id="m73TzlK8DcfUAyYybOyp-703" value="&lt;div&gt;&lt;font style=&quot;font-size: 14px;&quot; color=&quot;#0000ff&quot;&gt;TOPページ　　名簿登録　　名簿一覧　　&lt;b&gt;品物全件一覧　&lt;/b&gt;&lt;/font&gt;&lt;/div&gt;" style="text;strokeColor=none;fillColor=none;html=1;whiteSpace=wrap;verticalAlign=middle;overflow=hidden;" vertex="1" parent="m73TzlK8DcfUAyYybOyp-699">
          <mxGeometry x="206.07999999999998" y="60" width="410" height="80" as="geometry" />
        </mxCell>
        <mxCell id="m73TzlK8DcfUAyYybOyp-704" value="&lt;span style=&quot;font-size: 24px;&quot;&gt;TOPページ&lt;/span&gt;" style="text;strokeColor=none;fillColor=none;html=1;whiteSpace=wrap;verticalAlign=middle;overflow=hidden;" vertex="1" parent="m73TzlK8DcfUAyYybOyp-699">
          <mxGeometry x="291.36" y="50" width="205" height="30" as="geometry" />
        </mxCell>
        <mxCell id="m73TzlK8DcfUAyYybOyp-705" value="&lt;div&gt;ログアウト&lt;/div&gt;" style="text;strokeColor=none;fillColor=none;html=1;whiteSpace=wrap;verticalAlign=middle;overflow=hidden;fontColor=#0000FF;" vertex="1" parent="m73TzlK8DcfUAyYybOyp-699">
          <mxGeometry x="201.35999999999999" y="300" width="65" height="20" as="geometry" />
        </mxCell>
        <mxCell id="m73TzlK8DcfUAyYybOyp-795" value="" style="ellipse;whiteSpace=wrap;html=1;gradientColor=none;fillColor=none;strokeWidth=4;strokeColor=#FF0000;" vertex="1" parent="m73TzlK8DcfUAyYybOyp-699">
          <mxGeometry x="464.86" y="85" width="101.5" height="30" as="geometry" />
        </mxCell>
        <mxCell id="m73TzlK8DcfUAyYybOyp-677" value="&lt;font style=&quot;font-size: 18px;&quot;&gt;showallshinamono.jsp&lt;br&gt;品物一覧&lt;br&gt;&lt;/font&gt;" style="rounded=0;whiteSpace=wrap;html=1;fontSize=16;strokeColor=none;container=0;fillColor=none;" vertex="1" parent="m73TzlK8DcfUAyYybOyp-699">
          <mxGeometry x="380.00000000000006" y="380" width="295.05" height="58.14" as="geometry" />
        </mxCell>
        <mxCell id="m73TzlK8DcfUAyYybOyp-802" value="" style="curved=1;endArrow=classic;html=1;rounded=0;" edge="1" parent="m73TzlK8DcfUAyYybOyp-699">
          <mxGeometry width="50" height="50" relative="1" as="geometry">
            <mxPoint x="778.48" y="430" as="sourcePoint" />
            <mxPoint x="815.48" y="430" as="targetPoint" />
            <Array as="points">
              <mxPoint x="778.8099999999995" y="360.1999999999998" />
              <mxPoint x="788.8100000000004" y="300" />
              <mxPoint x="808.8099999999995" y="320.1999999999998" />
            </Array>
          </mxGeometry>
        </mxCell>
        <mxCell id="m73TzlK8DcfUAyYybOyp-805" value="" style="curved=1;endArrow=classic;html=1;rounded=0;" edge="1" parent="m73TzlK8DcfUAyYybOyp-699">
          <mxGeometry width="50" height="50" relative="1" as="geometry">
            <mxPoint x="779.9099999999999" y="140" as="sourcePoint" />
            <mxPoint x="816.9099999999999" y="140" as="targetPoint" />
            <Array as="points">
              <mxPoint x="786.5800000000004" y="249.80000000000018" />
              <mxPoint x="805.48" y="250" />
              <mxPoint x="816.5800000000004" y="209.80000000000018" />
            </Array>
          </mxGeometry>
        </mxCell>
        <mxCell id="m73TzlK8DcfUAyYybOyp-801" value="&lt;span style=&quot;font-size: 20px;&quot;&gt;リクエスト&lt;br&gt;スコープ&lt;/span&gt;" style="ellipse;whiteSpace=wrap;html=1;flipH=1;" vertex="1" parent="m73TzlK8DcfUAyYybOyp-699">
          <mxGeometry x="725.9100000000003" y="234" width="145" height="80" as="geometry" />
        </mxCell>
        <mxCell id="m73TzlK8DcfUAyYybOyp-649" value="&lt;font style=&quot;font-size: 20px;&quot;&gt;➊&lt;/font&gt;" style="rounded=0;whiteSpace=wrap;html=1;fontSize=16;fillColor=none;strokeColor=none;" vertex="1" parent="m73TzlK8DcfUAyYybOyp-699">
          <mxGeometry x="546.3600000000007" y="80" width="101" height="60" as="geometry" />
        </mxCell>
        <mxCell id="m73TzlK8DcfUAyYybOyp-809" value="&lt;span style=&quot;font-size: 20px;&quot;&gt;❿&lt;/span&gt;" style="rounded=0;whiteSpace=wrap;html=1;fontSize=16;fillColor=none;strokeColor=none;" vertex="1" parent="m73TzlK8DcfUAyYybOyp-699">
          <mxGeometry x="625.48" y="220" width="70" height="50" as="geometry" />
        </mxCell>
        <mxCell id="m73TzlK8DcfUAyYybOyp-811" value="&lt;div style=&quot;padding: 0px 0px 0px 2px; font-size: 20px;&quot;&gt;&lt;div style=&quot;font-family: &amp;quot;ＭＳ ゴシック&amp;quot;; font-size: 20px;&quot;&gt;&lt;p style=&quot;margin: 0px; font-size: 20px;&quot;&gt;&lt;span style=&quot;border: 1pt solid rgb(0, 255, 255); font-size: 20px;&quot;&gt;&lt;font color=&quot;#050505&quot;&gt;ShinamonoDAO.java&lt;/font&gt;&lt;/span&gt;&lt;/p&gt;&lt;/div&gt;&lt;/div&gt;" style="rounded=0;whiteSpace=wrap;html=1;fontSize=20;align=center;" vertex="1" parent="1">
          <mxGeometry x="-2911.7599999999998" y="4916.31" width="228.97" height="110" as="geometry" />
        </mxCell>
        <mxCell id="m73TzlK8DcfUAyYybOyp-812" value="&lt;font style=&quot;font-size: 20px;&quot;&gt;SQL&lt;/font&gt;" style="shape=cylinder3;whiteSpace=wrap;html=1;boundedLbl=1;backgroundOutline=1;size=15;" vertex="1" parent="1">
          <mxGeometry x="-2912.79" y="5091.31" width="221" height="80" as="geometry" />
        </mxCell>
        <mxCell id="m73TzlK8DcfUAyYybOyp-814" value="" style="endArrow=classic;html=1;rounded=0;" edge="1" parent="1">
          <mxGeometry width="50" height="50" relative="1" as="geometry">
            <mxPoint x="-2742.79" y="4846.31" as="sourcePoint" />
            <mxPoint x="-2742.79" y="4916.31" as="targetPoint" />
          </mxGeometry>
        </mxCell>
        <mxCell id="m73TzlK8DcfUAyYybOyp-815" value="" style="endArrow=classic;html=1;rounded=0;exitX=0.695;exitY=1.047;exitDx=0;exitDy=0;exitPerimeter=0;" edge="1" parent="1">
          <mxGeometry width="50" height="50" relative="1" as="geometry">
            <mxPoint x="-2743.1899999999996" y="5026.31" as="sourcePoint" />
            <mxPoint x="-2743" y="5109" as="targetPoint" />
          </mxGeometry>
        </mxCell>
        <mxCell id="m73TzlK8DcfUAyYybOyp-816" value="" style="endArrow=classic;html=1;rounded=0;entryX=0.189;entryY=1.033;entryDx=0;entryDy=0;entryPerimeter=0;" edge="1" parent="1">
          <mxGeometry width="50" height="50" relative="1" as="geometry">
            <mxPoint x="-2861.79" y="4916.31" as="sourcePoint" />
            <mxPoint x="-2863.13214" y="4839.9400000000005" as="targetPoint" />
          </mxGeometry>
        </mxCell>
        <mxCell id="m73TzlK8DcfUAyYybOyp-817" value="" style="endArrow=classic;html=1;rounded=0;exitX=0.695;exitY=1.047;exitDx=0;exitDy=0;exitPerimeter=0;entryX=0.695;entryY=0.024;entryDx=0;entryDy=0;entryPerimeter=0;" edge="1" parent="1">
          <mxGeometry width="50" height="50" relative="1" as="geometry">
            <mxPoint x="-2862.7899999999995" y="5109.31" as="sourcePoint" />
            <mxPoint x="-2862.7899999999995" y="5026.31" as="targetPoint" />
          </mxGeometry>
        </mxCell>
        <mxCell id="m73TzlK8DcfUAyYybOyp-821" value="&lt;div style=&quot;padding: 0px 0px 0px 2px; font-size: 20px;&quot;&gt;&lt;div style=&quot;font-family: &amp;quot;ＭＳ ゴシック&amp;quot;; font-size: 20px;&quot;&gt;&lt;p style=&quot;margin: 0px; font-size: 20px;&quot;&gt;&lt;span style=&quot;border: 1pt solid rgb(0, 255, 255); font-size: 20px;&quot;&gt;&lt;font color=&quot;#050505&quot;&gt;ExcuteDeleteShinamono.java&lt;/font&gt;&lt;/span&gt;&lt;/p&gt;&lt;/div&gt;&lt;/div&gt;" style="rounded=0;whiteSpace=wrap;html=1;fontSize=20;align=center;" vertex="1" parent="1">
          <mxGeometry x="-2928.81" y="4729.94" width="278.81" height="110" as="geometry" />
        </mxCell>
        <mxCell id="m73TzlK8DcfUAyYybOyp-822" value="" style="curved=1;endArrow=classic;html=1;rounded=0;entryX=0.42;entryY=-0.036;entryDx=0;entryDy=0;entryPerimeter=0;" edge="1" parent="1">
          <mxGeometry width="50" height="50" relative="1" as="geometry">
            <mxPoint x="-2888.47" y="4732" as="sourcePoint" />
            <mxPoint x="-2854.2699999999995" y="4725.9800000000005" as="targetPoint" />
            <Array as="points">
              <mxPoint x="-2893.4700000000007" y="4692" />
              <mxPoint x="-2883.47" y="4631.8" />
              <mxPoint x="-2863.4700000000007" y="4652" />
            </Array>
          </mxGeometry>
        </mxCell>
        <mxCell id="m73TzlK8DcfUAyYybOyp-823" value="&lt;font style=&quot;font-size: 20px;&quot;&gt;セッション&lt;br&gt;スコープ&lt;/font&gt;" style="ellipse;whiteSpace=wrap;html=1;flipH=1;" vertex="1" parent="1">
          <mxGeometry x="-2943.47" y="4590" width="145" height="80" as="geometry" />
        </mxCell>
        <mxCell id="m73TzlK8DcfUAyYybOyp-825" value="&lt;font style=&quot;font-size: 20px;&quot;&gt;❷&lt;/font&gt;" style="rounded=0;whiteSpace=wrap;html=1;fontSize=16;fillColor=none;strokeColor=none;" vertex="1" parent="1">
          <mxGeometry x="-2925.47" y="4686.8" width="70.88" height="50" as="geometry" />
        </mxCell>
        <mxCell id="m73TzlK8DcfUAyYybOyp-826" value="&lt;font style=&quot;font-size: 20px;&quot;&gt;➌&lt;/font&gt;" style="rounded=0;whiteSpace=wrap;html=1;fontSize=16;fillColor=none;strokeColor=none;" vertex="1" parent="1">
          <mxGeometry x="-2785.3399999999997" y="4686.8" width="70.88" height="50" as="geometry" />
        </mxCell>
        <mxCell id="m73TzlK8DcfUAyYybOyp-827" value="" style="curved=1;endArrow=classic;html=1;rounded=0;entryX=0.42;entryY=-0.036;entryDx=0;entryDy=0;entryPerimeter=0;" edge="1" parent="1">
          <mxGeometry width="50" height="50" relative="1" as="geometry">
            <mxPoint x="-2748.5199999999995" y="4729.9400000000005" as="sourcePoint" />
            <mxPoint x="-2714.5199999999995" y="4723.74" as="targetPoint" />
            <Array as="points">
              <mxPoint x="-2753.5200000000004" y="4689.9400000000005" />
              <mxPoint x="-2743.5199999999995" y="4629.74" />
              <mxPoint x="-2723.5200000000004" y="4649.9400000000005" />
            </Array>
          </mxGeometry>
        </mxCell>
        <mxCell id="m73TzlK8DcfUAyYybOyp-828" value="&lt;div style=&quot;padding: 0px 0px 0px 2px; font-size: 20px;&quot;&gt;&lt;div style=&quot;font-family: &amp;quot;ＭＳ ゴシック&amp;quot;; font-size: 20px;&quot;&gt;&lt;p style=&quot;margin: 0px; font-size: 20px;&quot;&gt;&lt;span style=&quot;border: 1pt solid rgb(0, 255, 255); font-size: 20px;&quot;&gt;&lt;font color=&quot;#050505&quot;&gt;ShinamonoDTO.java&lt;/font&gt;&lt;/span&gt;&lt;/p&gt;&lt;/div&gt;&lt;/div&gt;" style="rounded=0;whiteSpace=wrap;html=1;fontSize=20;align=center;" vertex="1" parent="1">
          <mxGeometry x="-2792.4399999999996" y="4590.93" width="180" height="70" as="geometry" />
        </mxCell>
        <mxCell id="m73TzlK8DcfUAyYybOyp-830" value="&lt;font style=&quot;font-size: 20px;&quot;&gt;➍&lt;/font&gt;" style="rounded=0;whiteSpace=wrap;html=1;fontSize=16;fillColor=none;strokeColor=none;" vertex="1" parent="1">
          <mxGeometry x="-2781.79" y="4854.450000000001" width="70.88" height="50" as="geometry" />
        </mxCell>
        <mxCell id="m73TzlK8DcfUAyYybOyp-831" value="&lt;font style=&quot;font-size: 20px;&quot;&gt;➎&lt;/font&gt;" style="rounded=0;whiteSpace=wrap;html=1;fontSize=16;fillColor=none;strokeColor=none;" vertex="1" parent="1">
          <mxGeometry x="-2781.79" y="5041.31" width="70.88" height="50" as="geometry" />
        </mxCell>
        <mxCell id="m73TzlK8DcfUAyYybOyp-832" value="&lt;font style=&quot;font-size: 20px;&quot;&gt;❻&lt;/font&gt;" style="rounded=0;whiteSpace=wrap;html=1;fontSize=16;fillColor=none;strokeColor=none;" vertex="1" parent="1">
          <mxGeometry x="-2901.79" y="5044.84" width="70.88" height="50" as="geometry" />
        </mxCell>
        <mxCell id="m73TzlK8DcfUAyYybOyp-833" value="&lt;font style=&quot;font-size: 20px;&quot;&gt;❼&lt;/font&gt;" style="rounded=0;whiteSpace=wrap;html=1;fontSize=16;fillColor=none;strokeColor=none;" vertex="1" parent="1">
          <mxGeometry x="-2900.9100000000003" y="4866.31" width="70.88" height="38.14" as="geometry" />
        </mxCell>
        <mxCell id="m73TzlK8DcfUAyYybOyp-835" value="&lt;p style=&quot;margin-left:10.5pt;mso-para-margin-left:1.0gd&quot; class=&quot;MsoNormal&quot;&gt;&lt;b&gt;&lt;font style=&quot;font-size: 30px;&quot;&gt;機能⑨　贈り物・頂き物削除機能&lt;/font&gt;&lt;span style=&quot;font-size:11.0pt;font-family:&amp;quot;游ゴシック Light&amp;quot;;mso-ascii-theme-font:major-latin;&lt;br/&gt;mso-fareast-theme-font:major-latin;mso-hansi-theme-font:major-latin&quot;&gt;&lt;/span&gt;&lt;/b&gt;&lt;/p&gt;" style="rounded=0;whiteSpace=wrap;html=1;" vertex="1" parent="1">
          <mxGeometry x="-3420.9999999999995" y="4460" width="964.52" height="110" as="geometry" />
        </mxCell>
        <mxCell id="m73TzlK8DcfUAyYybOyp-869" value="&lt;font style=&quot;font-size: 13px;&quot;&gt;編集&lt;/font&gt;" style="rounded=0;whiteSpace=wrap;html=1;fontSize=16;strokeColor=none;container=0;" vertex="1" parent="1">
          <mxGeometry x="-2946.0285714285724" y="4180.000454545454" width="36.50142857142857" height="8.136818181818182" as="geometry" />
        </mxCell>
        <mxCell id="m73TzlK8DcfUAyYybOyp-870" value="&lt;font style=&quot;font-size: 14px;&quot;&gt;削除&lt;/font&gt;" style="rounded=0;whiteSpace=wrap;html=1;fontSize=16;strokeColor=none;container=0;" vertex="1" parent="1">
          <mxGeometry x="-3006.03" y="4180.000454545454" width="42.39" height="8.136818181818182" as="geometry" />
        </mxCell>
        <mxCell id="m73TzlK8DcfUAyYybOyp-871" value="" style="endArrow=none;html=1;rounded=0;fontSize=12;startSize=8;endSize=8;strokeColor=#0000FF;" edge="1" parent="1">
          <mxGeometry width="50" height="50" relative="1" as="geometry">
            <mxPoint x="-2999.837142857143" y="4220.880909090909" as="sourcePoint" />
            <mxPoint x="-2969.8400000000006" y="4220.8099999999995" as="targetPoint" />
            <Array as="points" />
          </mxGeometry>
        </mxCell>
        <mxCell id="m73TzlK8DcfUAyYybOyp-872" value="&lt;font color=&quot;#0000ff&quot; style=&quot;font-size: 13px;&quot;&gt;削除&lt;/font&gt;" style="rounded=0;whiteSpace=wrap;html=1;fontSize=16;strokeColor=none;container=0;" vertex="1" parent="1">
          <mxGeometry x="-3004.098571428572" y="4209.068181818182" width="38.537142857142854" height="8.136818181818182" as="geometry" />
        </mxCell>
        <mxCell id="m73TzlK8DcfUAyYybOyp-873" value="&lt;font color=&quot;#0000ff&quot; style=&quot;font-size: 13px;&quot;&gt;編集&lt;/font&gt;" style="rounded=0;whiteSpace=wrap;html=1;fontSize=16;strokeColor=none;container=0;" vertex="1" parent="1">
          <mxGeometry x="-2948.968571428572" y="4209.068181818182" width="42.38857142857143" height="8.136818181818182" as="geometry" />
        </mxCell>
        <mxCell id="m73TzlK8DcfUAyYybOyp-874" value="" style="endArrow=none;html=1;rounded=0;fontSize=12;startSize=8;endSize=8;strokeColor=#0000FF;" edge="1" parent="1">
          <mxGeometry width="50" height="50" relative="1" as="geometry">
            <mxPoint x="-2942.060000000001" y="4220.87" as="sourcePoint" />
            <mxPoint x="-2913.485714285715" y="4220.870909090909" as="targetPoint" />
            <Array as="points" />
          </mxGeometry>
        </mxCell>
        <mxCell id="m73TzlK8DcfUAyYybOyp-875" value="" style="rounded=0;whiteSpace=wrap;html=1;fillColor=default;container=0;" vertex="1" parent="1">
          <mxGeometry x="-3266.03" y="4150" width="390" height="150" as="geometry" />
        </mxCell>
        <mxCell id="m73TzlK8DcfUAyYybOyp-876" value="&lt;span style=&quot;font-size: 18px;&quot;&gt;品物全件一覧&lt;/span&gt;" style="rounded=0;whiteSpace=wrap;html=1;fontSize=16;strokeColor=none;container=0;" vertex="1" parent="1">
          <mxGeometry x="-3259.0900000000006" y="4160" width="150" height="8.14" as="geometry" />
        </mxCell>
        <mxCell id="m73TzlK8DcfUAyYybOyp-877" value="" style="rounded=0;whiteSpace=wrap;html=1;fontSize=16;strokeColor=none;container=0;" vertex="1" parent="1">
          <mxGeometry x="-3259.094285714286" y="4180.000454545455" width="43.05857142857143" height="8.136818181818182" as="geometry" />
        </mxCell>
        <mxCell id="m73TzlK8DcfUAyYybOyp-878" value="" style="rounded=0;whiteSpace=wrap;html=1;fontSize=16;strokeColor=none;container=0;" vertex="1" parent="1">
          <mxGeometry x="-3259.094285714286" y="4209.070454545455" width="43.05857142857143" height="8.136818181818182" as="geometry" />
        </mxCell>
        <mxCell id="m73TzlK8DcfUAyYybOyp-879" value="&lt;font style=&quot;font-size: 14px;&quot;&gt;名前&lt;/font&gt;" style="rounded=0;whiteSpace=wrap;html=1;fontSize=16;strokeColor=none;container=0;" vertex="1" parent="1">
          <mxGeometry x="-3216.0342857142864" y="4180.000454545455" width="43.05857142857143" height="8.136818181818182" as="geometry" />
        </mxCell>
        <mxCell id="m73TzlK8DcfUAyYybOyp-880" value="&lt;span style=&quot;font-size: 13px;&quot;&gt;登録名&lt;/span&gt;" style="rounded=0;whiteSpace=wrap;html=1;fontSize=16;strokeColor=none;container=0;" vertex="1" parent="1">
          <mxGeometry x="-3226.644285714286" y="4209.068181818182" width="64.28571428571428" height="8.136818181818182" as="geometry" />
        </mxCell>
        <mxCell id="m73TzlK8DcfUAyYybOyp-881" value="&lt;span style=&quot;font-size: 14px;&quot;&gt;贈り物&lt;/span&gt;" style="rounded=0;whiteSpace=wrap;html=1;fontSize=16;strokeColor=none;container=0;" vertex="1" parent="1">
          <mxGeometry x="-3176.03" y="4180" width="80" height="8.14" as="geometry" />
        </mxCell>
        <mxCell id="m73TzlK8DcfUAyYybOyp-882" value="&lt;span style=&quot;font-size: 14px;&quot;&gt;送りもの&lt;/span&gt;" style="rounded=0;whiteSpace=wrap;html=1;fontSize=16;strokeColor=none;container=0;" vertex="1" parent="1">
          <mxGeometry x="-3096.03" y="4180" width="80" height="8.14" as="geometry" />
        </mxCell>
        <mxCell id="m73TzlK8DcfUAyYybOyp-883" value="&lt;font color=&quot;#0000cc&quot;&gt;&lt;span style=&quot;font-size: 14px;&quot;&gt;名簿一覧&lt;/span&gt;&lt;/font&gt;" style="rounded=0;whiteSpace=wrap;html=1;fontSize=16;strokeColor=none;container=0;fillColor=none;" vertex="1" parent="1">
          <mxGeometry x="-3268.03" y="4260.57" width="80" height="9.43" as="geometry" />
        </mxCell>
        <mxCell id="m73TzlK8DcfUAyYybOyp-884" value="&lt;font color=&quot;#0000cc&quot;&gt;&lt;span style=&quot;font-size: 14px;&quot;&gt;ログアウト&lt;/span&gt;&lt;/font&gt;" style="rounded=0;whiteSpace=wrap;html=1;fontSize=16;strokeColor=none;container=0;fillColor=none;" vertex="1" parent="1">
          <mxGeometry x="-3266.03" y="4280.57" width="80" height="9.43" as="geometry" />
        </mxCell>
        <mxCell id="m73TzlK8DcfUAyYybOyp-888" value="" style="endArrow=none;html=1;rounded=0;fontSize=12;startSize=8;endSize=8;curved=1;strokeColor=#0000FF;entryX=0.914;entryY=1.297;entryDx=0;entryDy=0;entryPerimeter=0;exitX=0.061;exitY=1.3;exitDx=0;exitDy=0;exitPerimeter=0;" edge="1" parent="1" source="m73TzlK8DcfUAyYybOyp-884" target="m73TzlK8DcfUAyYybOyp-884">
          <mxGeometry width="50" height="50" relative="1" as="geometry">
            <mxPoint x="-3262.5600000000004" y="4299.6" as="sourcePoint" />
            <mxPoint x="-3189.5000000000005" y="4299.6" as="targetPoint" />
          </mxGeometry>
        </mxCell>
        <mxCell id="m73TzlK8DcfUAyYybOyp-889" value="" style="endArrow=none;html=1;rounded=0;fontSize=12;startSize=8;endSize=8;curved=1;strokeColor=#0000FF;entryX=0.855;entryY=1.28;entryDx=0;entryDy=0;entryPerimeter=0;exitX=0.142;exitY=1.286;exitDx=0;exitDy=0;exitPerimeter=0;" edge="1" parent="1" source="m73TzlK8DcfUAyYybOyp-883" target="m73TzlK8DcfUAyYybOyp-883">
          <mxGeometry width="50" height="50" relative="1" as="geometry">
            <mxPoint x="-3256.03" y="4280.29" as="sourcePoint" />
            <mxPoint x="-3196.03" y="4280" as="targetPoint" />
          </mxGeometry>
        </mxCell>
        <mxCell id="m73TzlK8DcfUAyYybOyp-890" value="&lt;span style=&quot;font-size: 14px;&quot;&gt;編集&lt;/span&gt;" style="rounded=0;whiteSpace=wrap;html=1;fontSize=16;strokeColor=none;container=0;" vertex="1" parent="1">
          <mxGeometry x="-3004.1000000000004" y="4180" width="48.8" height="8.14" as="geometry" />
        </mxCell>
        <mxCell id="m73TzlK8DcfUAyYybOyp-891" value="&lt;span style=&quot;font-size: 14px;&quot;&gt;削除&lt;/span&gt;" style="rounded=0;whiteSpace=wrap;html=1;fontSize=16;strokeColor=none;container=0;fillColor=none;" vertex="1" parent="1">
          <mxGeometry x="-2948.9700000000007" y="4180" width="80" height="8.14" as="geometry" />
        </mxCell>
        <mxCell id="m73TzlK8DcfUAyYybOyp-892" value="&lt;span style=&quot;font-size: 14px;&quot;&gt;削除&lt;/span&gt;" style="rounded=0;whiteSpace=wrap;html=1;fontSize=16;strokeColor=none;container=0;fillColor=none;fontColor=#0000FF;" vertex="1" parent="1">
          <mxGeometry x="-2928.9700000000007" y="4209.0599999999995" width="40" height="8.14" as="geometry" />
        </mxCell>
        <mxCell id="m73TzlK8DcfUAyYybOyp-893" value="&lt;span style=&quot;font-size: 14px;&quot;&gt;&lt;font color=&quot;#0000ff&quot;&gt;編集&lt;/font&gt;&lt;/span&gt;" style="rounded=0;whiteSpace=wrap;html=1;fontSize=16;strokeColor=none;container=0;" vertex="1" parent="1">
          <mxGeometry x="-2996.03" y="4209.07" width="30" height="8.14" as="geometry" />
        </mxCell>
        <mxCell id="m73TzlK8DcfUAyYybOyp-886" value="&lt;font color=&quot;#0000ff&quot;&gt;&lt;span style=&quot;font-size: 14px;&quot;&gt;トップページへ&lt;/span&gt;&lt;/font&gt;" style="text;strokeColor=none;fillColor=none;html=1;whiteSpace=wrap;verticalAlign=middle;overflow=hidden;container=0;" vertex="1" parent="1">
          <mxGeometry x="-3259.266" y="4230" width="158.11" height="20" as="geometry" />
        </mxCell>
        <mxCell id="m73TzlK8DcfUAyYybOyp-887" value="" style="endArrow=none;html=1;rounded=0;strokeColor=#0000FF;entryX=0.932;entryY=0.836;entryDx=0;entryDy=0;entryPerimeter=0;exitX=0.022;exitY=0.842;exitDx=0;exitDy=0;exitPerimeter=0;" edge="1" parent="1" source="m73TzlK8DcfUAyYybOyp-886" target="m73TzlK8DcfUAyYybOyp-886">
          <mxGeometry width="50" height="50" relative="1" as="geometry">
            <mxPoint x="-3246.0260000000003" y="4249.995" as="sourcePoint" />
            <mxPoint x="-3210.2580000000007" y="4249.995" as="targetPoint" />
          </mxGeometry>
        </mxCell>
        <mxCell id="m73TzlK8DcfUAyYybOyp-895" value="&lt;font style=&quot;font-size: 18px;&quot;&gt;showallshinamono.jsp&lt;br&gt;品物全件一覧&lt;br&gt;&lt;/font&gt;" style="rounded=0;whiteSpace=wrap;html=1;fontSize=16;strokeColor=none;container=0;fillColor=none;" vertex="1" parent="1">
          <mxGeometry x="-3447.69" y="4684.94" width="295.05" height="58.14" as="geometry" />
        </mxCell>
        <mxCell id="m73TzlK8DcfUAyYybOyp-896" value="&lt;font style=&quot;font-size: 13px;&quot;&gt;編集&lt;/font&gt;" style="rounded=0;whiteSpace=wrap;html=1;fontSize=16;strokeColor=none;container=0;" vertex="1" parent="1">
          <mxGeometry x="-3092.838571428573" y="4764.940454545454" width="36.50142857142857" height="8.136818181818182" as="geometry" />
        </mxCell>
        <mxCell id="m73TzlK8DcfUAyYybOyp-897" value="&lt;font style=&quot;font-size: 14px;&quot;&gt;削除&lt;/font&gt;" style="rounded=0;whiteSpace=wrap;html=1;fontSize=16;strokeColor=none;container=0;" vertex="1" parent="1">
          <mxGeometry x="-3152.8400000000006" y="4764.940454545454" width="42.39" height="8.136818181818182" as="geometry" />
        </mxCell>
        <mxCell id="m73TzlK8DcfUAyYybOyp-898" value="" style="endArrow=none;html=1;rounded=0;fontSize=12;startSize=8;endSize=8;strokeColor=#0000FF;" edge="1" parent="1">
          <mxGeometry width="50" height="50" relative="1" as="geometry">
            <mxPoint x="-3146.6471428571435" y="4805.820909090909" as="sourcePoint" />
            <mxPoint x="-3116.650000000001" y="4805.749999999999" as="targetPoint" />
            <Array as="points" />
          </mxGeometry>
        </mxCell>
        <mxCell id="m73TzlK8DcfUAyYybOyp-899" value="&lt;font color=&quot;#0000ff&quot; style=&quot;font-size: 13px;&quot;&gt;削除&lt;/font&gt;" style="rounded=0;whiteSpace=wrap;html=1;fontSize=16;strokeColor=none;container=0;" vertex="1" parent="1">
          <mxGeometry x="-3150.9085714285725" y="4794.008181818182" width="38.537142857142854" height="8.136818181818182" as="geometry" />
        </mxCell>
        <mxCell id="m73TzlK8DcfUAyYybOyp-900" value="&lt;font color=&quot;#0000ff&quot; style=&quot;font-size: 13px;&quot;&gt;編集&lt;/font&gt;" style="rounded=0;whiteSpace=wrap;html=1;fontSize=16;strokeColor=none;container=0;" vertex="1" parent="1">
          <mxGeometry x="-3095.7785714285724" y="4794.008181818182" width="42.38857142857143" height="8.136818181818182" as="geometry" />
        </mxCell>
        <mxCell id="m73TzlK8DcfUAyYybOyp-901" value="" style="endArrow=none;html=1;rounded=0;fontSize=12;startSize=8;endSize=8;strokeColor=#0000FF;" edge="1" parent="1">
          <mxGeometry width="50" height="50" relative="1" as="geometry">
            <mxPoint x="-3088.8700000000013" y="4805.8099999999995" as="sourcePoint" />
            <mxPoint x="-3060.2957142857153" y="4805.810909090908" as="targetPoint" />
            <Array as="points" />
          </mxGeometry>
        </mxCell>
        <mxCell id="m73TzlK8DcfUAyYybOyp-902" value="" style="rounded=0;whiteSpace=wrap;html=1;fillColor=default;container=0;" vertex="1" parent="1">
          <mxGeometry x="-3412.8400000000006" y="4734.94" width="390" height="150" as="geometry" />
        </mxCell>
        <mxCell id="m73TzlK8DcfUAyYybOyp-903" value="&lt;span style=&quot;font-size: 18px;&quot;&gt;品物全件一覧&lt;/span&gt;" style="rounded=0;whiteSpace=wrap;html=1;fontSize=16;strokeColor=none;container=0;" vertex="1" parent="1">
          <mxGeometry x="-3405.900000000001" y="4744.94" width="150" height="8.14" as="geometry" />
        </mxCell>
        <mxCell id="m73TzlK8DcfUAyYybOyp-904" value="" style="rounded=0;whiteSpace=wrap;html=1;fontSize=16;strokeColor=none;container=0;" vertex="1" parent="1">
          <mxGeometry x="-3405.9042857142863" y="4764.9404545454545" width="43.05857142857143" height="8.136818181818182" as="geometry" />
        </mxCell>
        <mxCell id="m73TzlK8DcfUAyYybOyp-905" value="" style="rounded=0;whiteSpace=wrap;html=1;fontSize=16;strokeColor=none;container=0;" vertex="1" parent="1">
          <mxGeometry x="-3405.9042857142863" y="4794.010454545454" width="43.05857142857143" height="8.136818181818182" as="geometry" />
        </mxCell>
        <mxCell id="m73TzlK8DcfUAyYybOyp-906" value="&lt;font style=&quot;font-size: 14px;&quot;&gt;名前&lt;/font&gt;" style="rounded=0;whiteSpace=wrap;html=1;fontSize=16;strokeColor=none;container=0;" vertex="1" parent="1">
          <mxGeometry x="-3362.844285714287" y="4764.9404545454545" width="43.05857142857143" height="8.136818181818182" as="geometry" />
        </mxCell>
        <mxCell id="m73TzlK8DcfUAyYybOyp-907" value="&lt;span style=&quot;font-size: 13px;&quot;&gt;登録名&lt;/span&gt;" style="rounded=0;whiteSpace=wrap;html=1;fontSize=16;strokeColor=none;container=0;" vertex="1" parent="1">
          <mxGeometry x="-3373.4542857142865" y="4794.008181818182" width="64.28571428571428" height="8.136818181818182" as="geometry" />
        </mxCell>
        <mxCell id="m73TzlK8DcfUAyYybOyp-908" value="&lt;span style=&quot;font-size: 14px;&quot;&gt;贈り物&lt;/span&gt;" style="rounded=0;whiteSpace=wrap;html=1;fontSize=16;strokeColor=none;container=0;" vertex="1" parent="1">
          <mxGeometry x="-3322.8400000000006" y="4764.94" width="80" height="8.14" as="geometry" />
        </mxCell>
        <mxCell id="m73TzlK8DcfUAyYybOyp-909" value="&lt;span style=&quot;font-size: 14px;&quot;&gt;送りもの&lt;/span&gt;" style="rounded=0;whiteSpace=wrap;html=1;fontSize=16;strokeColor=none;container=0;" vertex="1" parent="1">
          <mxGeometry x="-3242.8400000000006" y="4764.94" width="80" height="8.14" as="geometry" />
        </mxCell>
        <mxCell id="m73TzlK8DcfUAyYybOyp-910" value="&lt;font color=&quot;#0000cc&quot;&gt;&lt;span style=&quot;font-size: 14px;&quot;&gt;名簿一覧&lt;/span&gt;&lt;/font&gt;" style="rounded=0;whiteSpace=wrap;html=1;fontSize=16;strokeColor=none;container=0;fillColor=none;" vertex="1" parent="1">
          <mxGeometry x="-3414.8400000000006" y="4845.509999999999" width="80" height="9.43" as="geometry" />
        </mxCell>
        <mxCell id="m73TzlK8DcfUAyYybOyp-911" value="&lt;font color=&quot;#0000cc&quot;&gt;&lt;span style=&quot;font-size: 14px;&quot;&gt;ログアウト&lt;/span&gt;&lt;/font&gt;" style="rounded=0;whiteSpace=wrap;html=1;fontSize=16;strokeColor=none;container=0;fillColor=none;" vertex="1" parent="1">
          <mxGeometry x="-3412.8400000000006" y="4865.509999999999" width="80" height="9.43" as="geometry" />
        </mxCell>
        <mxCell id="m73TzlK8DcfUAyYybOyp-912" value="" style="endArrow=none;html=1;rounded=0;fontSize=12;startSize=8;endSize=8;curved=1;strokeColor=#0000FF;entryX=0.914;entryY=1.297;entryDx=0;entryDy=0;entryPerimeter=0;exitX=0.061;exitY=1.3;exitDx=0;exitDy=0;exitPerimeter=0;" edge="1" parent="1" source="m73TzlK8DcfUAyYybOyp-911" target="m73TzlK8DcfUAyYybOyp-911">
          <mxGeometry width="50" height="50" relative="1" as="geometry">
            <mxPoint x="-3409.370000000001" y="4884.54" as="sourcePoint" />
            <mxPoint x="-3336.310000000001" y="4884.54" as="targetPoint" />
          </mxGeometry>
        </mxCell>
        <mxCell id="m73TzlK8DcfUAyYybOyp-913" value="" style="endArrow=none;html=1;rounded=0;fontSize=12;startSize=8;endSize=8;curved=1;strokeColor=#0000FF;entryX=0.855;entryY=1.28;entryDx=0;entryDy=0;entryPerimeter=0;exitX=0.142;exitY=1.286;exitDx=0;exitDy=0;exitPerimeter=0;" edge="1" parent="1" source="m73TzlK8DcfUAyYybOyp-910" target="m73TzlK8DcfUAyYybOyp-910">
          <mxGeometry width="50" height="50" relative="1" as="geometry">
            <mxPoint x="-3402.8400000000006" y="4865.23" as="sourcePoint" />
            <mxPoint x="-3342.8400000000006" y="4864.94" as="targetPoint" />
          </mxGeometry>
        </mxCell>
        <mxCell id="m73TzlK8DcfUAyYybOyp-914" value="&lt;span style=&quot;font-size: 14px;&quot;&gt;編集&lt;/span&gt;" style="rounded=0;whiteSpace=wrap;html=1;fontSize=16;strokeColor=none;container=0;" vertex="1" parent="1">
          <mxGeometry x="-3150.9100000000008" y="4764.94" width="48.8" height="8.14" as="geometry" />
        </mxCell>
        <mxCell id="m73TzlK8DcfUAyYybOyp-916" value="&lt;span style=&quot;font-size: 14px;&quot;&gt;削除&lt;/span&gt;" style="rounded=0;whiteSpace=wrap;html=1;fontSize=16;strokeColor=none;container=0;fillColor=none;fontColor=#0000FF;" vertex="1" parent="1">
          <mxGeometry x="-3075.780000000001" y="4793.999999999999" width="40" height="8.14" as="geometry" />
        </mxCell>
        <mxCell id="m73TzlK8DcfUAyYybOyp-917" value="&lt;span style=&quot;font-size: 14px;&quot;&gt;&lt;font color=&quot;#0000ff&quot;&gt;編集&lt;/font&gt;&lt;/span&gt;" style="rounded=0;whiteSpace=wrap;html=1;fontSize=16;strokeColor=none;container=0;" vertex="1" parent="1">
          <mxGeometry x="-3142.8400000000006" y="4794.009999999999" width="30" height="8.14" as="geometry" />
        </mxCell>
        <mxCell id="m73TzlK8DcfUAyYybOyp-918" value="&lt;font color=&quot;#0000ff&quot;&gt;&lt;span style=&quot;font-size: 14px;&quot;&gt;トップページへ&lt;/span&gt;&lt;/font&gt;" style="text;strokeColor=none;fillColor=none;html=1;whiteSpace=wrap;verticalAlign=middle;overflow=hidden;container=0;" vertex="1" parent="1">
          <mxGeometry x="-3406.0760000000005" y="4814.94" width="158.11" height="20" as="geometry" />
        </mxCell>
        <mxCell id="m73TzlK8DcfUAyYybOyp-919" value="" style="endArrow=none;html=1;rounded=0;strokeColor=#0000FF;entryX=0.932;entryY=0.836;entryDx=0;entryDy=0;entryPerimeter=0;exitX=0.022;exitY=0.842;exitDx=0;exitDy=0;exitPerimeter=0;" edge="1" parent="1" source="m73TzlK8DcfUAyYybOyp-918" target="m73TzlK8DcfUAyYybOyp-918">
          <mxGeometry width="50" height="50" relative="1" as="geometry">
            <mxPoint x="-3392.8360000000007" y="4834.9349999999995" as="sourcePoint" />
            <mxPoint x="-3357.068000000001" y="4834.9349999999995" as="targetPoint" />
          </mxGeometry>
        </mxCell>
        <mxCell id="m73TzlK8DcfUAyYybOyp-920" value="" style="ellipse;whiteSpace=wrap;html=1;gradientColor=none;fillColor=none;strokeWidth=4;strokeColor=#FF0000;" vertex="1" parent="1">
          <mxGeometry x="-3082.21" y="4784.94" width="50" height="30" as="geometry" />
        </mxCell>
        <mxCell id="m73TzlK8DcfUAyYybOyp-837" value="" style="endArrow=classic;html=1;rounded=0;exitX=1;exitY=0.5;exitDx=0;exitDy=0;" edge="1" parent="1" source="m73TzlK8DcfUAyYybOyp-920">
          <mxGeometry width="50" height="50" relative="1" as="geometry">
            <mxPoint x="-3130" y="5170" as="sourcePoint" />
            <mxPoint x="-2930" y="4800" as="targetPoint" />
          </mxGeometry>
        </mxCell>
        <mxCell id="m73TzlK8DcfUAyYybOyp-923" value="&lt;font style=&quot;font-size: 19px;&quot;&gt;&lt;p class=&quot;MsoNormal&quot;&gt;&amp;lt;&lt;span style=&quot;font-family: &amp;quot;BIZ UDPゴシック&amp;quot;; background: rgb(217, 217, 217);&quot;&gt;ｄ&lt;span lang=&quot;EN-US&quot;&gt;oDelete&amp;gt;&lt;/span&gt;&lt;/span&gt;&lt;span style=&quot;font-size:9.0pt;&lt;br/&gt;mso-bidi-font-size:10.0pt;font-family:&amp;quot;BIZ UDPゴシック&amp;quot;;background:#D9D9D9;&lt;br/&gt;mso-shading:white;mso-pattern:gray-15 auto&quot; lang=&quot;EN-US&quot;&gt;&lt;/span&gt;&lt;/p&gt;&lt;/font&gt;" style="rounded=0;whiteSpace=wrap;html=1;fontSize=16;strokeColor=none;container=0;fillColor=none;" vertex="1" parent="1">
          <mxGeometry x="-2729.97" y="5033.17" width="162.52" height="58.14" as="geometry" />
        </mxCell>
        <mxCell id="m73TzlK8DcfUAyYybOyp-924" value="&lt;font style=&quot;font-size: 18px;&quot;&gt;&lt;p class=&quot;MsoNormal&quot;&gt;&amp;lt;&lt;span style=&quot;font-family: &amp;quot;BIZ UDPゴシック&amp;quot;; background: rgb(217, 217, 217);&quot; lang=&quot;EN-US&quot;&gt;isSuccess&amp;gt;&lt;/span&gt;&lt;/p&gt;&lt;span style=&quot;font-family: &amp;quot;BIZ UDPゴシック&amp;quot;; background-color: initial;&quot;&gt;　削除の可否&lt;/span&gt;&lt;br&gt;&lt;/font&gt;" style="rounded=0;whiteSpace=wrap;html=1;fontSize=16;strokeColor=none;container=0;fillColor=none;" vertex="1" parent="1">
          <mxGeometry x="-3032.5" y="4990" width="170" height="125.16" as="geometry" />
        </mxCell>
        <mxCell id="m73TzlK8DcfUAyYybOyp-942" value="" style="curved=1;endArrow=classic;html=1;rounded=0;exitX=0;exitY=1;exitDx=0;exitDy=0;" edge="1" parent="1" source="m73TzlK8DcfUAyYybOyp-821" target="m73TzlK8DcfUAyYybOyp-902">
          <mxGeometry width="50" height="50" relative="1" as="geometry">
            <mxPoint x="-3166" y="4916" as="sourcePoint" />
            <mxPoint x="-3200" y="4909.799999999999" as="targetPoint" />
            <Array as="points">
              <mxPoint x="-3080" y="5070" />
              <mxPoint x="-3210" y="5060" />
              <mxPoint x="-3260" y="5090" />
              <mxPoint x="-3250" y="4940" />
            </Array>
          </mxGeometry>
        </mxCell>
        <mxCell id="m73TzlK8DcfUAyYybOyp-943" value="&lt;font style=&quot;font-size: 20px;&quot;&gt;レスポンス&lt;/font&gt;" style="edgeLabel;html=1;align=center;verticalAlign=middle;resizable=0;points=[];" vertex="1" connectable="0" parent="m73TzlK8DcfUAyYybOyp-942">
          <mxGeometry x="-0.6867" y="-3" relative="1" as="geometry">
            <mxPoint y="-1" as="offset" />
          </mxGeometry>
        </mxCell>
        <mxCell id="m73TzlK8DcfUAyYybOyp-941" value="&lt;font color=&quot;#050505&quot;&gt;showallshinamono.jsp&lt;br&gt;の画面に&lt;br&gt;『1件削除しました&lt;/font&gt;&lt;span style=&quot;color: rgb(5, 5, 5); background-color: initial;&quot;&gt;&lt;font&gt;』&lt;br&gt;&lt;/font&gt;&lt;font&gt;&lt;font&gt;のメッセージが表示され&lt;/font&gt;&lt;br&gt;&lt;font&gt;対象の行が削除される&lt;/font&gt;&lt;/font&gt;&lt;br&gt;&lt;/span&gt;" style="rounded=0;whiteSpace=wrap;html=1;fontSize=20;align=center;" vertex="1" parent="1">
          <mxGeometry x="-3412.8399999999997" y="5041.31" width="307.14" height="160" as="geometry" />
        </mxCell>
        <mxCell id="m73TzlK8DcfUAyYybOyp-944" value="&lt;span style=&quot;font-size: 20px;&quot;&gt;➊&lt;/span&gt;" style="rounded=0;whiteSpace=wrap;html=1;fontSize=16;fillColor=none;strokeColor=none;" vertex="1" parent="1">
          <mxGeometry x="-3014.35" y="4774.94" width="70.88" height="50" as="geometry" />
        </mxCell>
        <mxCell id="m73TzlK8DcfUAyYybOyp-945" value="&lt;font style=&quot;font-size: 20px;&quot;&gt;❽&lt;/font&gt;" style="rounded=0;whiteSpace=wrap;html=1;fontSize=16;fillColor=none;strokeColor=none;" vertex="1" parent="1">
          <mxGeometry x="-3002.0000000000005" y="4878.17" width="70.88" height="38.14" as="geometry" />
        </mxCell>
        <mxCell id="m73TzlK8DcfUAyYybOyp-952" value="&lt;div style=&quot;padding: 0px 0px 0px 2px; font-size: 20px;&quot;&gt;&lt;div style=&quot;font-family: &amp;quot;ＭＳ ゴシック&amp;quot;; font-size: 20px;&quot;&gt;&lt;p style=&quot;margin: 0px; font-size: 20px;&quot;&gt;&lt;span style=&quot;border: 1pt solid rgb(0, 255, 255); font-size: 20px;&quot;&gt;&lt;font color=&quot;#050505&quot;&gt;ShinamonoDAO.java&lt;/font&gt;&lt;/span&gt;&lt;/p&gt;&lt;/div&gt;&lt;/div&gt;" style="rounded=0;whiteSpace=wrap;html=1;fontSize=20;align=center;" vertex="1" parent="1">
          <mxGeometry x="-2959.9100000000003" y="6400" width="228.97" height="110" as="geometry" />
        </mxCell>
        <mxCell id="m73TzlK8DcfUAyYybOyp-953" value="&lt;font style=&quot;font-size: 20px;&quot;&gt;SQL&lt;/font&gt;" style="shape=cylinder3;whiteSpace=wrap;html=1;boundedLbl=1;backgroundOutline=1;size=15;" vertex="1" parent="1">
          <mxGeometry x="-2960.9400000000005" y="6575" width="221" height="80" as="geometry" />
        </mxCell>
        <mxCell id="m73TzlK8DcfUAyYybOyp-954" value="" style="endArrow=classic;html=1;rounded=0;" edge="1" parent="1">
          <mxGeometry width="50" height="50" relative="1" as="geometry">
            <mxPoint x="-2709.94" y="7246.31" as="sourcePoint" />
            <mxPoint x="-2709.94" y="7316.31" as="targetPoint" />
          </mxGeometry>
        </mxCell>
        <mxCell id="m73TzlK8DcfUAyYybOyp-955" value="" style="endArrow=classic;html=1;rounded=0;exitX=0.695;exitY=1.047;exitDx=0;exitDy=0;exitPerimeter=0;" edge="1" parent="1">
          <mxGeometry width="50" height="50" relative="1" as="geometry">
            <mxPoint x="-2791.34" y="6510" as="sourcePoint" />
            <mxPoint x="-2791.1500000000005" y="6592.6900000000005" as="targetPoint" />
          </mxGeometry>
        </mxCell>
        <mxCell id="m73TzlK8DcfUAyYybOyp-956" value="" style="endArrow=classic;html=1;rounded=0;entryX=0.189;entryY=1.033;entryDx=0;entryDy=0;entryPerimeter=0;" edge="1" parent="1">
          <mxGeometry width="50" height="50" relative="1" as="geometry">
            <mxPoint x="-2828.94" y="7316.31" as="sourcePoint" />
            <mxPoint x="-2830.2821400000003" y="7239.9400000000005" as="targetPoint" />
          </mxGeometry>
        </mxCell>
        <mxCell id="m73TzlK8DcfUAyYybOyp-957" value="" style="endArrow=classic;html=1;rounded=0;exitX=0.695;exitY=1.047;exitDx=0;exitDy=0;exitPerimeter=0;entryX=0.695;entryY=0.024;entryDx=0;entryDy=0;entryPerimeter=0;" edge="1" parent="1">
          <mxGeometry width="50" height="50" relative="1" as="geometry">
            <mxPoint x="-2910.94" y="6593" as="sourcePoint" />
            <mxPoint x="-2910.94" y="6510" as="targetPoint" />
          </mxGeometry>
        </mxCell>
        <mxCell id="m73TzlK8DcfUAyYybOyp-958" value="&lt;div style=&quot;padding: 0px 0px 0px 2px; font-size: 20px;&quot;&gt;&lt;div style=&quot;font-family: &amp;quot;ＭＳ ゴシック&amp;quot;; font-size: 20px;&quot;&gt;&lt;p style=&quot;margin: 0px; font-size: 20px;&quot;&gt;&lt;span style=&quot;border: 1pt solid rgb(0, 255, 255); font-size: 20px;&quot;&gt;&lt;font color=&quot;#050505&quot;&gt;ExcuteDeleteShinamono.java&lt;/font&gt;&lt;/span&gt;&lt;/p&gt;&lt;/div&gt;&lt;/div&gt;" style="rounded=0;whiteSpace=wrap;html=1;fontSize=20;align=center;" vertex="1" parent="1">
          <mxGeometry x="-2895.96" y="7129.94" width="278.81" height="110" as="geometry" />
        </mxCell>
        <mxCell id="m73TzlK8DcfUAyYybOyp-959" value="" style="curved=1;endArrow=classic;html=1;rounded=0;entryX=0.42;entryY=-0.036;entryDx=0;entryDy=0;entryPerimeter=0;" edge="1" parent="1">
          <mxGeometry width="50" height="50" relative="1" as="geometry">
            <mxPoint x="-2855.62" y="7132" as="sourcePoint" />
            <mxPoint x="-2821.4199999999996" y="7125.9800000000005" as="targetPoint" />
            <Array as="points">
              <mxPoint x="-2860.620000000001" y="7092" />
              <mxPoint x="-2850.62" y="7031.8" />
              <mxPoint x="-2830.620000000001" y="7052" />
            </Array>
          </mxGeometry>
        </mxCell>
        <mxCell id="m73TzlK8DcfUAyYybOyp-960" value="&lt;font style=&quot;font-size: 20px;&quot;&gt;セッション&lt;br&gt;スコープ&lt;/font&gt;" style="ellipse;whiteSpace=wrap;html=1;flipH=1;" vertex="1" parent="1">
          <mxGeometry x="-2910.62" y="6990" width="145" height="80" as="geometry" />
        </mxCell>
        <mxCell id="m73TzlK8DcfUAyYybOyp-961" value="&lt;font style=&quot;font-size: 20px;&quot;&gt;❷&lt;/font&gt;" style="rounded=0;whiteSpace=wrap;html=1;fontSize=16;fillColor=none;strokeColor=none;" vertex="1" parent="1">
          <mxGeometry x="-2892.62" y="7086.8" width="70.88" height="50" as="geometry" />
        </mxCell>
        <mxCell id="m73TzlK8DcfUAyYybOyp-962" value="&lt;font style=&quot;font-size: 20px;&quot;&gt;➌&lt;/font&gt;" style="rounded=0;whiteSpace=wrap;html=1;fontSize=16;fillColor=none;strokeColor=none;" vertex="1" parent="1">
          <mxGeometry x="-2752.49" y="7086.8" width="70.88" height="50" as="geometry" />
        </mxCell>
        <mxCell id="m73TzlK8DcfUAyYybOyp-963" value="" style="curved=1;endArrow=classic;html=1;rounded=0;entryX=0.42;entryY=-0.036;entryDx=0;entryDy=0;entryPerimeter=0;" edge="1" parent="1">
          <mxGeometry width="50" height="50" relative="1" as="geometry">
            <mxPoint x="-2715.6699999999996" y="7129.9400000000005" as="sourcePoint" />
            <mxPoint x="-2681.6699999999996" y="7123.74" as="targetPoint" />
            <Array as="points">
              <mxPoint x="-2720.6700000000005" y="7089.9400000000005" />
              <mxPoint x="-2710.6699999999996" y="7029.74" />
              <mxPoint x="-2690.6700000000005" y="7049.9400000000005" />
            </Array>
          </mxGeometry>
        </mxCell>
        <mxCell id="m73TzlK8DcfUAyYybOyp-964" value="&lt;div style=&quot;padding: 0px 0px 0px 2px; font-size: 20px;&quot;&gt;&lt;div style=&quot;font-family: &amp;quot;ＭＳ ゴシック&amp;quot;; font-size: 20px;&quot;&gt;&lt;p style=&quot;margin: 0px; font-size: 20px;&quot;&gt;&lt;span style=&quot;border: 1pt solid rgb(0, 255, 255); font-size: 20px;&quot;&gt;&lt;font color=&quot;#050505&quot;&gt;ShinamonoDTO.java&lt;/font&gt;&lt;/span&gt;&lt;/p&gt;&lt;/div&gt;&lt;/div&gt;" style="rounded=0;whiteSpace=wrap;html=1;fontSize=20;align=center;" vertex="1" parent="1">
          <mxGeometry x="-2759.5899999999997" y="6990.93" width="180" height="70" as="geometry" />
        </mxCell>
        <mxCell id="m73TzlK8DcfUAyYybOyp-965" value="&lt;font style=&quot;font-size: 20px;&quot;&gt;➍&lt;/font&gt;" style="rounded=0;whiteSpace=wrap;html=1;fontSize=16;fillColor=none;strokeColor=none;" vertex="1" parent="1">
          <mxGeometry x="-2748.94" y="7254.450000000001" width="70.88" height="50" as="geometry" />
        </mxCell>
        <mxCell id="m73TzlK8DcfUAyYybOyp-966" value="&lt;font style=&quot;font-size: 20px;&quot;&gt;➎&lt;/font&gt;" style="rounded=0;whiteSpace=wrap;html=1;fontSize=16;fillColor=none;strokeColor=none;" vertex="1" parent="1">
          <mxGeometry x="-2829.9400000000005" y="6525" width="70.88" height="50" as="geometry" />
        </mxCell>
        <mxCell id="m73TzlK8DcfUAyYybOyp-967" value="&lt;font style=&quot;font-size: 20px;&quot;&gt;❻&lt;/font&gt;" style="rounded=0;whiteSpace=wrap;html=1;fontSize=16;fillColor=none;strokeColor=none;" vertex="1" parent="1">
          <mxGeometry x="-2949.9400000000005" y="6528.530000000001" width="70.88" height="50" as="geometry" />
        </mxCell>
        <mxCell id="m73TzlK8DcfUAyYybOyp-968" value="&lt;font style=&quot;font-size: 20px;&quot;&gt;❼&lt;/font&gt;" style="rounded=0;whiteSpace=wrap;html=1;fontSize=16;fillColor=none;strokeColor=none;" vertex="1" parent="1">
          <mxGeometry x="-2868.0600000000004" y="7266.31" width="70.88" height="38.14" as="geometry" />
        </mxCell>
        <mxCell id="m73TzlK8DcfUAyYybOyp-969" value="&lt;p style=&quot;margin-left:10.5pt;mso-para-margin-left:1.0gd&quot; class=&quot;MsoNormal&quot;&gt;&lt;b&gt;&lt;font style=&quot;font-size: 30px;&quot;&gt;機能⑧　贈り物・頂き物編集機能&lt;/font&gt;&lt;span style=&quot;font-size:11.0pt;font-family:&amp;quot;游ゴシック Light&amp;quot;;mso-ascii-theme-font:major-latin;&lt;br/&gt;mso-fareast-theme-font:major-latin;mso-hansi-theme-font:major-latin&quot;&gt;&lt;/span&gt;&lt;/b&gt;&lt;/p&gt;" style="rounded=0;whiteSpace=wrap;html=1;" vertex="1" parent="1">
          <mxGeometry x="-3403.3099999999995" y="5490" width="964.52" height="110" as="geometry" />
        </mxCell>
        <mxCell id="m73TzlK8DcfUAyYybOyp-970" value="&lt;font style=&quot;font-size: 18px;&quot;&gt;showallshinamono.jsp&lt;br&gt;品物全件一覧&lt;br&gt;&lt;/font&gt;" style="rounded=0;whiteSpace=wrap;html=1;fontSize=16;strokeColor=none;container=0;fillColor=none;" vertex="1" parent="1">
          <mxGeometry x="-3144.9600000000005" y="5645" width="295.05" height="58.14" as="geometry" />
        </mxCell>
        <mxCell id="m73TzlK8DcfUAyYybOyp-971" value="&lt;font style=&quot;font-size: 13px;&quot;&gt;編集&lt;/font&gt;" style="rounded=0;whiteSpace=wrap;html=1;fontSize=16;strokeColor=none;container=0;" vertex="1" parent="1">
          <mxGeometry x="-2790.108571428573" y="5725.000454545454" width="36.50142857142857" height="8.136818181818182" as="geometry" />
        </mxCell>
        <mxCell id="m73TzlK8DcfUAyYybOyp-972" value="&lt;font style=&quot;font-size: 14px;&quot;&gt;削除&lt;/font&gt;" style="rounded=0;whiteSpace=wrap;html=1;fontSize=16;strokeColor=none;container=0;" vertex="1" parent="1">
          <mxGeometry x="-2850.110000000001" y="5725.000454545454" width="42.39" height="8.136818181818182" as="geometry" />
        </mxCell>
        <mxCell id="m73TzlK8DcfUAyYybOyp-973" value="" style="endArrow=none;html=1;rounded=0;fontSize=12;startSize=8;endSize=8;strokeColor=#0000FF;" edge="1" parent="1">
          <mxGeometry width="50" height="50" relative="1" as="geometry">
            <mxPoint x="-2843.917142857144" y="5765.880909090909" as="sourcePoint" />
            <mxPoint x="-2813.9200000000014" y="5765.8099999999995" as="targetPoint" />
            <Array as="points" />
          </mxGeometry>
        </mxCell>
        <mxCell id="m73TzlK8DcfUAyYybOyp-974" value="&lt;font color=&quot;#0000ff&quot; style=&quot;font-size: 13px;&quot;&gt;削除&lt;/font&gt;" style="rounded=0;whiteSpace=wrap;html=1;fontSize=16;strokeColor=none;container=0;" vertex="1" parent="1">
          <mxGeometry x="-2848.178571428573" y="5754.068181818182" width="38.537142857142854" height="8.136818181818182" as="geometry" />
        </mxCell>
        <mxCell id="m73TzlK8DcfUAyYybOyp-975" value="&lt;font color=&quot;#0000ff&quot; style=&quot;font-size: 13px;&quot;&gt;編集&lt;/font&gt;" style="rounded=0;whiteSpace=wrap;html=1;fontSize=16;strokeColor=none;container=0;" vertex="1" parent="1">
          <mxGeometry x="-2793.048571428573" y="5754.068181818182" width="42.38857142857143" height="8.136818181818182" as="geometry" />
        </mxCell>
        <mxCell id="m73TzlK8DcfUAyYybOyp-976" value="" style="endArrow=none;html=1;rounded=0;fontSize=12;startSize=8;endSize=8;strokeColor=#0000FF;" edge="1" parent="1">
          <mxGeometry width="50" height="50" relative="1" as="geometry">
            <mxPoint x="-2786.1400000000017" y="5765.87" as="sourcePoint" />
            <mxPoint x="-2757.565714285716" y="5765.870909090909" as="targetPoint" />
            <Array as="points" />
          </mxGeometry>
        </mxCell>
        <mxCell id="m73TzlK8DcfUAyYybOyp-977" value="" style="rounded=0;whiteSpace=wrap;html=1;fillColor=default;container=0;" vertex="1" parent="1">
          <mxGeometry x="-3110.110000000001" y="5695" width="390" height="150" as="geometry" />
        </mxCell>
        <mxCell id="m73TzlK8DcfUAyYybOyp-978" value="&lt;span style=&quot;font-size: 18px;&quot;&gt;品物全件一覧&lt;/span&gt;" style="rounded=0;whiteSpace=wrap;html=1;fontSize=16;strokeColor=none;container=0;" vertex="1" parent="1">
          <mxGeometry x="-3103.1700000000014" y="5705" width="150" height="8.14" as="geometry" />
        </mxCell>
        <mxCell id="m73TzlK8DcfUAyYybOyp-979" value="" style="rounded=0;whiteSpace=wrap;html=1;fontSize=16;strokeColor=none;container=0;" vertex="1" parent="1">
          <mxGeometry x="-3103.1742857142867" y="5725.000454545455" width="43.05857142857143" height="8.136818181818182" as="geometry" />
        </mxCell>
        <mxCell id="m73TzlK8DcfUAyYybOyp-980" value="" style="rounded=0;whiteSpace=wrap;html=1;fontSize=16;strokeColor=none;container=0;" vertex="1" parent="1">
          <mxGeometry x="-3103.1742857142867" y="5754.070454545455" width="43.05857142857143" height="8.136818181818182" as="geometry" />
        </mxCell>
        <mxCell id="m73TzlK8DcfUAyYybOyp-981" value="&lt;font style=&quot;font-size: 14px;&quot;&gt;名前&lt;/font&gt;" style="rounded=0;whiteSpace=wrap;html=1;fontSize=16;strokeColor=none;container=0;" vertex="1" parent="1">
          <mxGeometry x="-3060.1142857142872" y="5725.000454545455" width="43.05857142857143" height="8.136818181818182" as="geometry" />
        </mxCell>
        <mxCell id="m73TzlK8DcfUAyYybOyp-982" value="&lt;span style=&quot;font-size: 13px;&quot;&gt;登録名&lt;/span&gt;" style="rounded=0;whiteSpace=wrap;html=1;fontSize=16;strokeColor=none;container=0;" vertex="1" parent="1">
          <mxGeometry x="-3070.724285714287" y="5754.068181818182" width="64.28571428571428" height="8.136818181818182" as="geometry" />
        </mxCell>
        <mxCell id="m73TzlK8DcfUAyYybOyp-983" value="&lt;span style=&quot;font-size: 14px;&quot;&gt;贈り物&lt;/span&gt;" style="rounded=0;whiteSpace=wrap;html=1;fontSize=16;strokeColor=none;container=0;" vertex="1" parent="1">
          <mxGeometry x="-3020.110000000001" y="5725" width="80" height="8.14" as="geometry" />
        </mxCell>
        <mxCell id="m73TzlK8DcfUAyYybOyp-984" value="&lt;span style=&quot;font-size: 14px;&quot;&gt;送りもの&lt;/span&gt;" style="rounded=0;whiteSpace=wrap;html=1;fontSize=16;strokeColor=none;container=0;" vertex="1" parent="1">
          <mxGeometry x="-2940.110000000001" y="5725" width="80" height="8.14" as="geometry" />
        </mxCell>
        <mxCell id="m73TzlK8DcfUAyYybOyp-985" value="&lt;font color=&quot;#0000cc&quot;&gt;&lt;span style=&quot;font-size: 14px;&quot;&gt;名簿一覧&lt;/span&gt;&lt;/font&gt;" style="rounded=0;whiteSpace=wrap;html=1;fontSize=16;strokeColor=none;container=0;fillColor=none;" vertex="1" parent="1">
          <mxGeometry x="-3112.110000000001" y="5805.57" width="80" height="9.43" as="geometry" />
        </mxCell>
        <mxCell id="m73TzlK8DcfUAyYybOyp-986" value="&lt;font color=&quot;#0000cc&quot;&gt;&lt;span style=&quot;font-size: 14px;&quot;&gt;ログアウト&lt;/span&gt;&lt;/font&gt;" style="rounded=0;whiteSpace=wrap;html=1;fontSize=16;strokeColor=none;container=0;fillColor=none;" vertex="1" parent="1">
          <mxGeometry x="-3110.110000000001" y="5825.57" width="80" height="9.43" as="geometry" />
        </mxCell>
        <mxCell id="m73TzlK8DcfUAyYybOyp-987" value="" style="endArrow=none;html=1;rounded=0;fontSize=12;startSize=8;endSize=8;curved=1;strokeColor=#0000FF;entryX=0.914;entryY=1.297;entryDx=0;entryDy=0;entryPerimeter=0;exitX=0.061;exitY=1.3;exitDx=0;exitDy=0;exitPerimeter=0;" edge="1" parent="1" source="m73TzlK8DcfUAyYybOyp-986" target="m73TzlK8DcfUAyYybOyp-986">
          <mxGeometry width="50" height="50" relative="1" as="geometry">
            <mxPoint x="-3106.640000000001" y="5844.6" as="sourcePoint" />
            <mxPoint x="-3033.5800000000013" y="5844.6" as="targetPoint" />
          </mxGeometry>
        </mxCell>
        <mxCell id="m73TzlK8DcfUAyYybOyp-988" value="" style="endArrow=none;html=1;rounded=0;fontSize=12;startSize=8;endSize=8;curved=1;strokeColor=#0000FF;entryX=0.855;entryY=1.28;entryDx=0;entryDy=0;entryPerimeter=0;exitX=0.142;exitY=1.286;exitDx=0;exitDy=0;exitPerimeter=0;" edge="1" parent="1" source="m73TzlK8DcfUAyYybOyp-985" target="m73TzlK8DcfUAyYybOyp-985">
          <mxGeometry width="50" height="50" relative="1" as="geometry">
            <mxPoint x="-3100.110000000001" y="5825.29" as="sourcePoint" />
            <mxPoint x="-3040.110000000001" y="5825" as="targetPoint" />
          </mxGeometry>
        </mxCell>
        <mxCell id="m73TzlK8DcfUAyYybOyp-989" value="&lt;span style=&quot;font-size: 14px;&quot;&gt;編集&lt;/span&gt;" style="rounded=0;whiteSpace=wrap;html=1;fontSize=16;strokeColor=none;container=0;" vertex="1" parent="1">
          <mxGeometry x="-2848.1800000000007" y="5725" width="48.8" height="8.14" as="geometry" />
        </mxCell>
        <mxCell id="m73TzlK8DcfUAyYybOyp-990" value="&lt;span style=&quot;font-size: 14px;&quot;&gt;削除&lt;/span&gt;" style="rounded=0;whiteSpace=wrap;html=1;fontSize=16;strokeColor=none;container=0;fillColor=none;fontColor=#0000FF;" vertex="1" parent="1">
          <mxGeometry x="-2773.0500000000015" y="5754.0599999999995" width="40" height="8.14" as="geometry" />
        </mxCell>
        <mxCell id="m73TzlK8DcfUAyYybOyp-991" value="&lt;span style=&quot;font-size: 14px;&quot;&gt;&lt;font color=&quot;#0000ff&quot;&gt;編集&lt;/font&gt;&lt;/span&gt;" style="rounded=0;whiteSpace=wrap;html=1;fontSize=16;strokeColor=none;container=0;" vertex="1" parent="1">
          <mxGeometry x="-2840.110000000001" y="5754.07" width="30" height="8.14" as="geometry" />
        </mxCell>
        <mxCell id="m73TzlK8DcfUAyYybOyp-992" value="&lt;font color=&quot;#0000ff&quot;&gt;&lt;span style=&quot;font-size: 14px;&quot;&gt;トップページへ&lt;/span&gt;&lt;/font&gt;" style="text;strokeColor=none;fillColor=none;html=1;whiteSpace=wrap;verticalAlign=middle;overflow=hidden;container=0;" vertex="1" parent="1">
          <mxGeometry x="-3103.346000000001" y="5775" width="158.11" height="20" as="geometry" />
        </mxCell>
        <mxCell id="m73TzlK8DcfUAyYybOyp-993" value="" style="endArrow=none;html=1;rounded=0;strokeColor=#0000FF;entryX=0.932;entryY=0.836;entryDx=0;entryDy=0;entryPerimeter=0;exitX=0.022;exitY=0.842;exitDx=0;exitDy=0;exitPerimeter=0;" edge="1" parent="1" source="m73TzlK8DcfUAyYybOyp-992" target="m73TzlK8DcfUAyYybOyp-992">
          <mxGeometry width="50" height="50" relative="1" as="geometry">
            <mxPoint x="-3090.106000000001" y="5794.995" as="sourcePoint" />
            <mxPoint x="-3054.338000000001" y="5794.995" as="targetPoint" />
          </mxGeometry>
        </mxCell>
        <mxCell id="m73TzlK8DcfUAyYybOyp-994" value="" style="ellipse;whiteSpace=wrap;html=1;gradientColor=none;fillColor=none;strokeWidth=4;strokeColor=#FF0000;" vertex="1" parent="1">
          <mxGeometry x="-2851.43" y="5740.64" width="50" height="35" as="geometry" />
        </mxCell>
        <mxCell id="m73TzlK8DcfUAyYybOyp-996" value="&lt;font style=&quot;font-size: 19px;&quot;&gt;&lt;p class=&quot;MsoNormal&quot;&gt;&amp;lt;&lt;span style=&quot;font-family: &amp;quot;BIZ UDPゴシック&amp;quot;; background: rgb(217, 217, 217);&quot;&gt;ｄ&lt;span lang=&quot;EN-US&quot;&gt;oDelete&amp;gt;&lt;/span&gt;&lt;/span&gt;&lt;span style=&quot;font-size:9.0pt;&lt;br/&gt;mso-bidi-font-size:10.0pt;font-family:&amp;quot;BIZ UDPゴシック&amp;quot;;background:#D9D9D9;&lt;br/&gt;mso-shading:white;mso-pattern:gray-15 auto&quot; lang=&quot;EN-US&quot;&gt;&lt;/span&gt;&lt;/p&gt;&lt;/font&gt;" style="rounded=0;whiteSpace=wrap;html=1;fontSize=16;strokeColor=none;container=0;fillColor=none;" vertex="1" parent="1">
          <mxGeometry x="-2778.1200000000003" y="6516.860000000001" width="162.52" height="58.14" as="geometry" />
        </mxCell>
        <mxCell id="m73TzlK8DcfUAyYybOyp-997" value="&lt;font style=&quot;font-size: 18px;&quot;&gt;&lt;p class=&quot;MsoNormal&quot;&gt;&amp;lt;&lt;span style=&quot;font-family: &amp;quot;BIZ UDPゴシック&amp;quot;; background: rgb(217, 217, 217);&quot; lang=&quot;EN-US&quot;&gt;isSuccess&amp;gt;&lt;/span&gt;&lt;/p&gt;&lt;span style=&quot;font-family: &amp;quot;BIZ UDPゴシック&amp;quot;; background-color: initial;&quot;&gt;　削除の可否&lt;/span&gt;&lt;br&gt;&lt;/font&gt;" style="rounded=0;whiteSpace=wrap;html=1;fontSize=16;strokeColor=none;container=0;fillColor=none;" vertex="1" parent="1">
          <mxGeometry x="-3080.6500000000005" y="6473.6900000000005" width="170" height="125.16" as="geometry" />
        </mxCell>
        <mxCell id="m73TzlK8DcfUAyYybOyp-1000" value="&lt;font color=&quot;#050505&quot;&gt;showallshinamono.jsp&lt;br&gt;の画面に&lt;br&gt;『1件削除しました&lt;/font&gt;&lt;span style=&quot;color: rgb(5, 5, 5); background-color: initial;&quot;&gt;&lt;font&gt;』&lt;br&gt;&lt;/font&gt;&lt;font&gt;&lt;font&gt;のメッセージが表示され&lt;/font&gt;&lt;br&gt;&lt;font&gt;対象の行が削除される&lt;/font&gt;&lt;/font&gt;&lt;br&gt;&lt;/span&gt;" style="rounded=0;whiteSpace=wrap;html=1;fontSize=20;align=center;" vertex="1" parent="1">
          <mxGeometry x="-3379.99" y="7441.31" width="307.14" height="160" as="geometry" />
        </mxCell>
        <mxCell id="m73TzlK8DcfUAyYybOyp-1001" value="&lt;span style=&quot;font-size: 20px;&quot;&gt;➊&lt;/span&gt;" style="rounded=0;whiteSpace=wrap;html=1;fontSize=16;fillColor=none;strokeColor=none;" vertex="1" parent="1">
          <mxGeometry x="-2981.5" y="7174.94" width="70.88" height="50" as="geometry" />
        </mxCell>
        <mxCell id="m73TzlK8DcfUAyYybOyp-1002" value="&lt;font style=&quot;font-size: 20px;&quot;&gt;❽&lt;/font&gt;" style="rounded=0;whiteSpace=wrap;html=1;fontSize=16;fillColor=none;strokeColor=none;" vertex="1" parent="1">
          <mxGeometry x="-2969.1500000000005" y="7278.17" width="70.88" height="38.14" as="geometry" />
        </mxCell>
        <mxCell id="m73TzlK8DcfUAyYybOyp-1004" value="&lt;div style=&quot;padding: 0px 0px 0px 2px; font-size: 20px;&quot;&gt;&lt;div style=&quot;font-family: &amp;quot;ＭＳ ゴシック&amp;quot;; font-size: 20px;&quot;&gt;&lt;p style=&quot;margin: 0px; font-size: 20px;&quot;&gt;&lt;span style=&quot;border: 1pt solid rgb(0, 255, 255); font-size: 20px;&quot;&gt;&lt;font color=&quot;#050505&quot;&gt;ExcuteEditShinamono.java&lt;/font&gt;&lt;/span&gt;&lt;/p&gt;&lt;/div&gt;&lt;/div&gt;" style="rounded=0;whiteSpace=wrap;html=1;fontSize=20;align=center;" vertex="1" parent="1">
          <mxGeometry x="-2708.81" y="5674.07" width="278.81" height="110" as="geometry" />
        </mxCell>
        <mxCell id="m73TzlK8DcfUAyYybOyp-1005" value="&lt;div style=&quot;padding: 0px 0px 0px 2px; font-size: 20px;&quot;&gt;&lt;div style=&quot;font-family: &amp;quot;ＭＳ ゴシック&amp;quot;; font-size: 20px;&quot;&gt;&lt;p style=&quot;margin: 0px; font-size: 20px;&quot;&gt;&lt;span style=&quot;border: 1pt solid rgb(0, 255, 255); font-size: 20px;&quot;&gt;&lt;font color=&quot;#050505&quot;&gt;ShinamonoDTO.java&lt;/font&gt;&lt;/span&gt;&lt;/p&gt;&lt;/div&gt;&lt;/div&gt;" style="rounded=0;whiteSpace=wrap;html=1;fontSize=20;align=center;" vertex="1" parent="1">
          <mxGeometry x="-2361" y="5694.07" width="180" height="70" as="geometry" />
        </mxCell>
        <mxCell id="m73TzlK8DcfUAyYybOyp-1008" value="" style="curved=1;endArrow=classic;html=1;rounded=0;exitX=1.002;exitY=0.179;exitDx=0;exitDy=0;exitPerimeter=0;entryX=0.999;entryY=0.792;entryDx=0;entryDy=0;entryPerimeter=0;" edge="1" parent="1" source="m73TzlK8DcfUAyYybOyp-1004" target="m73TzlK8DcfUAyYybOyp-1004">
          <mxGeometry width="50" height="50" relative="1" as="geometry">
            <mxPoint x="-2400" y="5780" as="sourcePoint" />
            <mxPoint x="-2363" y="5780" as="targetPoint" />
            <Array as="points">
              <mxPoint x="-2393" y="5690" />
              <mxPoint x="-2330" y="5720" />
              <mxPoint x="-2360" y="5750" />
            </Array>
          </mxGeometry>
        </mxCell>
      </root>
    </mxGraphModel>
  </diagram>
</mxfile>
